<?xml version="1.0" encoding="UTF-8"?>
<svg version="1.1" xmlns="http://www.w3.org/2000/svg" width="31" height="31">
<path d="M0 0 C4.86108919 2.29796944 7.70203056 5.13891081 10 10 C10.77379561 15.29813119 10.67768515 19.56643525 8.375 24.4375 C4.04565669 29.10863357 0.92123974 31.23861982 -5.5 31.5 C-11.92123974 31.23861982 -15.04565669 29.10863357 -19.375 24.4375 C-21.67768515 19.56643525 -21.77379561 15.29813119 -21 10 C-16.66939086 0.83909605 -9.52517725 -1.39115853 0 0 Z " fill="#FFFFFF" transform="translate(21,0)"/>
<path d="M0 0 C4.58950321 2.29475161 5.75946586 3.43891265 8 8 C8.80210183 13.39814535 8.67101939 17.63399625 6.25 22.5625 C4 25 4 25 0 27 C0 18.09 0 9.18 0 0 Z " fill="#EC293A" transform="translate(23,2)"/>
<path d="M0 0 C0.66 0 1.32 0 2 0 C2 8.91 2 17.82 2 27 C-2.58950321 24.70524839 -3.75946586 23.56108735 -6 19 C-6.75866828 13.89416249 -7.03519508 8.89031729 -4.125 4.4375 C-2.79788638 2.91522261 -1.42803344 1.42803344 0 0 Z " fill="#062897" transform="translate(6,2)"/>
</svg>
