<svg width="21" height="21" viewBox="0 0 21 21" fill="none" xmlns="http://www.w3.org/2000/svg">
<g clip-path="url(#clip0_431_89)">
<rect x="0.5" y="0.840027" width="20" height="20" rx="7" fill="#FF4E4E"/>
<mask id="mask0_431_89" style="mask-type:luminance" maskUnits="userSpaceOnUse" x="-10" y="0" width="41" height="21">
<path d="M-9.5 0.840027L-9.5 20.84L30.5 20.84L30.5 0.840027L-9.5 0.840027Z" fill="white"/>
</mask>
<g mask="url(#mask0_431_89)">
<path d="M-9.50073 0.840088L-9.50073 20.8401L30.4993 20.8401L30.4993 0.840088L-9.50073 0.840088Z" fill="#001E6D"/>
<path fill-rule="evenodd" clip-rule="evenodd" d="M6.02727 10.8401L-10.395 2.62898L-8.60617 -0.94873L10.4994 8.60406L29.605 -0.94873L31.3938 2.62898L14.9715 10.8401L31.3938 19.0513L29.605 22.629L10.4994 13.0762L-8.60617 22.629L-10.395 19.0513L6.02727 10.8401Z" fill="white"/>
<mask id="mask1_431_89" style="mask-type:luminance" maskUnits="userSpaceOnUse" x="-10" y="0" width="41" height="21">
<path d="M10.4993 10.8401L30.4993 10.8401L30.4993 20.8401L10.4993 10.8401ZM10.4993 10.8401L10.4993 20.8401L-9.50073 20.8401L10.4993 10.8401ZM10.4993 10.8401L-9.50073 10.8401L-9.50073 0.840088L10.4993 10.8401ZM10.4993 10.8401L10.4993 0.840088L30.4993 0.840088L10.4993 10.8401Z" fill="white"/>
</mask>
<g mask="url(#mask1_431_89)">
<path fill-rule="evenodd" clip-rule="evenodd" d="M7.51794 10.8401L-10.0969 2.03266L-8.90435 -0.352478L10.4994 9.34938L29.9031 -0.352478L31.0956 2.03266L13.4808 10.8401L31.0956 19.6475L29.9031 22.0327L10.4994 12.3308L-8.90435 22.0327L-10.0969 19.6475L7.51794 10.8401Z" fill="#C8102E"/>
</g>
<path fill-rule="evenodd" clip-rule="evenodd" d="M7.16594 7.50675L7.16594 0.840088L13.8326 0.840088L13.8326 7.50675L30.4993 7.50675L30.4993 14.1734L13.8326 14.1734L13.8326 20.8401H7.16594L7.16594 14.1734L-9.50073 14.1734L-9.50073 7.50675L7.16594 7.50675Z" fill="white"/>
<path fill-rule="evenodd" clip-rule="evenodd" d="M8.49927 8.84009L8.49927 0.840088L12.4993 0.840088L12.4993 8.84009L30.4993 8.84009L30.4993 12.8401L12.4993 12.8401L12.4993 20.8401H8.49927L8.49927 12.8401L-9.50073 12.8401L-9.50073 8.84009L8.49927 8.84009Z" fill="#C8102E"/>
</g>
</g>
<defs>
<clipPath id="clip0_431_89">
<rect x="0.5" y="0.840027" width="20" height="20" rx="7" fill="white"/>
</clipPath>
</defs>
</svg>
