<svg width="140" height="140" viewBox="0 0 140 140" fill="none" xmlns="http://www.w3.org/2000/svg">
<circle cx="70" cy="70" r="70" fill="#6A6C57"/>
<path d="M53.6564 57H56.3444L47.1004 83.9203H43.2612L37.2406 66.3936L31.2199 83.9203H27.3865L18.1426 57H21.976L30.9897 83.1893L37.0104 65.6626L34.0231 57H37.8565L46.8702 83.1893L51.8548 68.6154C52.5944 66.4943 53.111 64.4625 53.4031 62.5199C53.6981 60.5787 53.783 58.7383 53.6564 57Z" fill="#F4F1EB"/>
<path d="M72.0649 83.9203H68.2315V57.5353C66.6458 57.5353 65.3478 57.6072 64.3348 57.7483C63.3246 57.8864 62.4181 58.1166 61.6122 58.439C60.8064 58.7584 59.9171 59.1728 58.9473 59.6822V57H81.3837V59.6822C80.4124 59.1728 79.5102 58.7584 78.6784 58.439C77.8496 58.1166 76.9286 57.8864 75.9156 57.7483C74.9055 57.6072 73.6219 57.5353 72.0649 57.5353V83.9203Z" fill="#F4F1EB"/>
<path d="M119.313 57H122.001L112.757 83.9203H108.917L102.897 66.3936L96.8762 83.9203H93.0428L83.7988 57H87.6322L96.646 83.1893L102.667 65.6626L99.6793 57H103.513L112.526 83.1893L117.511 68.6154C118.251 66.4943 118.767 64.4625 119.059 62.5199C119.354 60.5787 119.439 58.7383 119.313 57Z" fill="#F4F1EB"/>
</svg>
