<svg width="24" height="16" viewBox="0 0 24 16" fill="none" xmlns="http://www.w3.org/2000/svg">
<path fill-rule="evenodd" clip-rule="evenodd" d="M11.6205 1.54839C10.6873 1.54839 10.0868 2.15948 10.0868 2.74581C10.0868 2.95114 9.99855 3.14805 9.84154 3.29324C9.68453 3.43843 9.47158 3.52 9.24954 3.52C9.0275 3.52 8.81455 3.43843 8.65754 3.29324C8.50053 3.14805 8.41232 2.95114 8.41232 2.74581C8.41232 1.15303 9.93494 0 11.6205 0C13.3061 0 14.8287 1.15303 14.8287 2.74581C14.8287 3.44774 14.5519 4.10219 14.0585 4.59768C13.9022 4.75561 13.7303 4.91252 13.5729 5.05703L13.4903 5.13135C13.3194 5.28487 13.1551 5.44466 12.998 5.61032C12.9146 5.69945 12.8381 5.79397 12.7692 5.89316C13.4138 6.00409 14.0269 6.23595 14.5709 6.57445L22.8682 11.7461C23.9287 12.4067 24.2156 13.4978 23.8472 14.4175C23.4844 15.3218 22.5177 16 21.2619 16H2.73713C1.49582 16 0.533578 15.3342 0.162972 14.4413C-0.214333 13.5329 0.0513429 12.448 1.08726 11.775L9.00731 6.62194C9.59842 6.23899 10.2753 5.98424 10.9876 5.87665C11.1048 5.35329 11.4263 4.92903 11.7221 4.60697C11.9141 4.39845 12.124 4.20335 12.3126 4.03097L12.4019 3.94839C12.5616 3.80387 12.7 3.6769 12.8261 3.54994C13.0293 3.34555 13.1543 3.06684 13.1543 2.74477C13.1543 2.15948 12.5537 1.54839 11.6205 1.54839ZM13.6354 7.85755C13.0884 7.52238 12.4441 7.34886 11.788 7.36C11.1386 7.36363 10.5054 7.54777 9.97066 7.88852L2.05061 13.0405C1.66438 13.2914 1.61414 13.6165 1.72689 13.8859C1.8441 14.1698 2.17675 14.4516 2.73713 14.4516H21.2619C21.8301 14.4516 22.1616 14.1657 22.2777 13.8787C22.386 13.6062 22.3302 13.2779 21.9317 13.0302L13.6354 7.85755Z" fill="black"/>
</svg>
