<svg width="14" height="20" viewBox="0 0 14 20" fill="none" xmlns="http://www.w3.org/2000/svg">
<path fill-rule="evenodd" clip-rule="evenodd" d="M8 9V3C8 2.44772 7.55228 2 7 2C6.44772 2 6 2.44772 6 3V9C6 9.55228 6.44772 10 7 10C7.55228 10 8 9.55228 8 9ZM7 0C5.34315 0 4 1.34315 4 3V9C4 10.6569 5.34315 12 7 12C8.65685 12 10 10.6569 10 9V3C10 1.34315 8.65685 0 7 0Z" fill="#6F767E"/>
<path d="M2 9C2 8.44771 1.55228 8 1 8C0.447715 8 0 8.44771 0 9C0 12.5265 2.60771 15.4439 6 15.9291V18H4C3.44772 18 3 18.4477 3 19C3 19.5523 3.44772 20 4 20H10C10.5523 20 11 19.5523 11 19C11 18.4477 10.5523 18 10 18H8V15.9291C11.3923 15.4439 14 12.5265 14 9C14 8.44771 13.5523 8 13 8C12.4477 8 12 8.44771 12 9C12 11.7614 9.76142 14 7 14C4.23858 14 2 11.7614 2 9Z" fill="#6F767E"/>
</svg>
