<svg width="60" height="90" viewBox="0 0 60 90" fill="none" xmlns="http://www.w3.org/2000/svg">
<path opacity="0.7" d="M29.9971 40.9949C43.2503 40.9949 53.9942 34.28 53.9942 25.9967C53.9942 17.7134 43.2503 10.9985 29.9971 10.9985C16.7439 10.9985 6 17.7134 6 25.9967C6 34.28 16.7439 40.9949 29.9971 40.9949Z" fill="#333333"/>
<path d="M29.9968 63.9925C44.3545 63.9925 55.9937 55.4869 55.9937 44.9948C55.9937 34.5026 44.3545 25.9971 29.9968 25.9971C15.6392 25.9971 4 34.5026 4 44.9948C4 55.4869 15.6392 63.9925 29.9968 63.9925Z" fill="#333333"/>
<path opacity="0.7" d="M29.9935 87.989C41.5901 87.989 50.991 80.3788 50.991 70.9911C50.991 61.6034 41.5901 53.9932 29.9935 53.9932C18.397 53.9932 8.99609 61.6034 8.99609 70.9911C8.99609 80.3788 18.397 87.989 29.9935 87.989Z" fill="#333333"/>
</svg>
