<svg width="60" height="90" viewBox="0 0 60 90" fill="none" xmlns="http://www.w3.org/2000/svg">
<path d="M29.9971 40.9949C43.2503 40.9949 53.9942 34.28 53.9942 25.9967C53.9942 17.7134 43.2503 10.9985 29.9971 10.9985C16.7439 10.9985 6 17.7134 6 25.9967C6 34.28 16.7439 40.9949 29.9971 40.9949Z" fill="#333333"/>
<path opacity="0.7" d="M29.9978 58.9927C39.9377 58.9927 47.9956 52.7254 47.9956 44.9944C47.9956 37.2633 39.9377 30.9961 29.9978 30.9961C20.0579 30.9961 12 37.2633 12 44.9944C12 52.7254 20.0579 58.9927 29.9978 58.9927Z" fill="#333333"/>
<path d="M29.9971 88.9893C43.2503 88.9893 53.9942 80.9314 53.9942 70.9915C53.9942 61.0515 43.2503 52.9937 29.9971 52.9937C16.7439 52.9937 6 61.0515 6 70.9915C6 80.9314 16.7439 88.9893 29.9971 88.9893Z" fill="#333333"/>
</svg>
