<svg width="60" height="90" viewBox="0 0 60 90" fill="none" xmlns="http://www.w3.org/2000/svg">
<path d="M29.9967 42.9949C44.9066 42.9949 56.9934 35.3847 56.9934 25.997C56.9934 16.6093 44.9066 8.99902 29.9967 8.99902C15.0868 8.99902 3 16.6093 3 25.997C3 35.3847 15.0868 42.9949 29.9967 42.9949Z" fill="#333333"/>
<path opacity="0.7" d="M29.9972 59.9924C42.6982 59.9924 52.9944 53.2775 52.9944 44.9943C52.9944 36.711 42.6982 29.9961 29.9972 29.9961C17.2962 29.9961 7 36.711 7 44.9943C7 53.2775 17.2962 59.9924 29.9972 59.9924Z" fill="#333333"/>
<path opacity="0.7" d="M29.9978 85.9895C39.9377 85.9895 47.9956 79.2746 47.9956 70.9913C47.9956 62.7081 39.9377 55.9932 29.9978 55.9932C20.0579 55.9932 12 62.7081 12 70.9913C12 79.2746 20.0579 85.9895 29.9978 85.9895Z" fill="#333333"/>
</svg>
