<svg width="60" height="90" viewBox="0 0 60 90" fill="none" xmlns="http://www.w3.org/2000/svg">
<g clip-path="url(#clip0_2375_17667)">
<path d="M40.6641 62.2627H18.6641V27.0625H40.6641V62.2627Z" stroke="#E5E7EB"/>
<path d="M24.1656 38.0627C24.1656 35.6358 26.1387 33.6627 28.5656 33.6627H30.7656C33.1925 33.6627 35.1656 35.6358 35.1656 38.0627V38.3102C35.1656 39.8089 34.4025 41.2046 33.1444 42.0089L30.2431 43.8721C28.5106 44.9858 27.4656 46.9039 27.4656 48.9596V49.0627C27.4656 50.2796 28.4487 51.2627 29.6656 51.2627C30.8825 51.2627 31.8656 50.2796 31.8656 49.0627V48.9664C31.8656 48.4027 32.1544 47.8802 32.6219 47.5777L35.5231 45.7146C38.0394 44.0921 39.5656 41.3077 39.5656 38.3102V38.0627C39.5656 33.2021 35.6262 29.2627 30.7656 29.2627H28.5656C23.705 29.2627 19.7656 33.2021 19.7656 38.0627C19.7656 39.2796 20.7487 40.2627 21.9656 40.2627C23.1825 40.2627 24.1656 39.2796 24.1656 38.0627ZM29.6656 60.0627C30.395 60.0627 31.0944 59.773 31.6102 59.2572C32.1259 58.7415 32.4156 58.042 32.4156 57.3127C32.4156 56.5833 32.1259 55.8839 31.6102 55.3682C31.0944 54.8524 30.395 54.5627 29.6656 54.5627C28.9363 54.5627 28.2368 54.8524 27.7211 55.3682C27.2054 55.8839 26.9156 56.5833 26.9156 57.3127C26.9156 58.042 27.2054 58.7415 27.7211 59.2572C28.2368 59.773 28.9363 60.0627 29.6656 60.0627Z" fill="#333333" fill-opacity="0.6"/>
</g>
<defs>
<clipPath id="clip0_2375_17667">
<rect width="22" height="35.2" fill="white" transform="translate(18.6641 27.0625)"/>
</clipPath>
</defs>
</svg>
