<svg width="60" height="90" viewBox="0 0 60 90" fill="none" xmlns="http://www.w3.org/2000/svg">
<g clip-path="url(#clip0_2375_17635)">
<path opacity="0.7" d="M29.9977 39.9951C40.4898 39.9951 48.9954 33.7279 48.9954 25.9968C48.9954 18.2658 40.4898 11.9985 29.9977 11.9985C19.5056 11.9985 11 18.2658 11 25.9968C11 33.7279 19.5056 39.9951 29.9977 39.9951Z" fill="#333333"/>
<path opacity="0.7" d="M29.9974 59.9924C41.594 59.9924 50.9949 53.2775 50.9949 44.9943C50.9949 36.711 41.594 29.9961 29.9974 29.9961C18.4009 29.9961 9 36.711 9 44.9943C9 53.2775 18.4009 59.9924 29.9974 59.9924Z" fill="#333333"/>
<path d="M30.0122 90.0291C45.4743 90.0291 58.0088 80.6282 58.0088 69.0316C58.0088 57.4351 45.4743 48.0342 30.0122 48.0342C14.5501 48.0342 2.01562 57.4351 2.01562 69.0316C2.01562 80.6282 14.5501 90.0291 30.0122 90.0291Z" fill="#333333"/>
</g>
<defs>
<clipPath id="clip0_2375_17635">
<rect width="59.9927" height="89.9891" fill="white"/>
</clipPath>
</defs>
</svg>
