<svg width="60" height="90" viewBox="0 0 60 90" fill="none" xmlns="http://www.w3.org/2000/svg">
<path opacity="0.7" d="M42.992 14.998H16.9951C12.5774 14.998 8.99609 18.5793 8.99609 22.9971V29.9962C8.99609 34.414 12.5774 37.9953 16.9951 37.9953H42.992C47.4097 37.9953 50.991 34.414 50.991 29.9962V22.9971C50.991 18.5793 47.4097 14.998 42.992 14.998Z" fill="#333333"/>
<path d="M42.992 37.9951H16.9951C12.5774 37.9951 8.99609 41.5764 8.99609 45.9941V52.9933C8.99609 57.411 12.5774 60.9923 16.9951 60.9923H42.992C47.4097 60.9923 50.991 57.411 50.991 52.9933V45.9941C50.991 41.5764 47.4097 37.9951 42.992 37.9951Z" fill="#333333"/>
<path opacity="0.7" d="M42.992 59.9927H16.9951C12.5774 59.9927 8.99609 63.574 8.99609 67.9917V74.9909C8.99609 79.4086 12.5774 82.9899 16.9951 82.9899H42.992C47.4097 82.9899 50.991 79.4086 50.991 74.9909V67.9917C50.991 63.574 47.4097 59.9927 42.992 59.9927Z" fill="#333333"/>
</svg>
