<svg width="20" height="17" viewBox="0 0 20 17" fill="none" xmlns="http://www.w3.org/2000/svg">
<path d="M10 0.5C10.4503 0.5 10.8885 0.91254 10.8887 1.51758C10.8887 1.90075 10.7018 2.22374 10.4502 2.39258L10.0977 2.62988L10.2744 3.01562L12.2637 7.36426C12.6797 8.27347 13.7634 8.61575 14.5762 8.0625L14.7354 7.93945L17.8291 5.2334L18.1631 4.94141L17.9131 4.5752C17.7952 4.40258 17.7227 4.18545 17.7227 3.94629C17.7227 3.34117 18.161 2.92871 18.6113 2.92871C19.0616 2.92884 19.4999 3.34127 19.5 3.94629C19.5 4.55138 19.0616 4.96374 18.6113 4.96387H18.1631L18.0938 5.38184L16.5068 14.9209C16.3473 15.8703 15.6094 16.5 14.8125 16.5H5.1875C4.38718 16.5 3.64955 15.8665 3.49316 14.9219L1.90625 5.38184L1.83691 4.96387H1.38867C0.938393 4.96373 0.5 4.55138 0.5 3.94629C0.500067 3.34127 0.938427 2.92884 1.38867 2.92871C1.83899 2.92871 2.27728 3.34118 2.27734 3.94629C2.27734 4.18545 2.20478 4.40258 2.08691 4.5752L1.83691 4.94141L2.1709 5.2334L5.26465 7.93945C6.08869 8.65877 7.29256 8.33421 7.73633 7.36426L9.72559 3.01562L9.90234 2.62988L9.5498 2.39258C9.29766 2.22338 9.11133 1.90387 9.11133 1.51758C9.11146 0.91254 9.54971 0.5 10 0.5Z" fill="white" stroke="black"/>
</svg>
