<svg width="27" height="23" viewBox="0 0 27 23" fill="none" xmlns="http://www.w3.org/2000/svg">
<path d="M8.4043 0.5H8.93555C8.96488 0.500036 9.00273 0.510403 9.0459 0.547852C9.07975 0.57729 9.11325 0.621057 9.13867 0.676758L9.16113 0.737305C9.73669 2.66366 11.4462 4.09375 13.5 4.09375C15.5538 4.09375 17.2633 2.66366 17.8389 0.737305C17.8644 0.652417 17.9089 0.587163 17.9541 0.547852C17.9973 0.510402 18.0351 0.500036 18.0645 0.5H18.5957C19.4183 0.5 20.2177 0.807198 20.8594 1.37598L26.1826 6.09668C26.3586 6.25284 26.4769 6.48952 26.4971 6.75391C26.5171 7.01554 26.4361 7.26877 26.2803 7.45801V7.45898L23.918 10.334L23.917 10.335C23.6337 10.6814 23.1683 10.7372 22.8213 10.4873L22.7529 10.4336L20.582 8.50684L19.75 7.76953V20.125C19.75 21.4647 18.7337 22.5 17.5498 22.5H9.4502C8.26627 22.5 7.25 21.4647 7.25 20.125V7.76953L6.41797 8.50684L4.24609 10.4346H4.24512C3.89958 10.7415 3.38997 10.7063 3.08203 10.333H3.08105L0.719727 7.45898V7.45801C0.563886 7.26877 0.48293 7.01554 0.50293 6.75391C0.523144 6.48951 0.641405 6.25284 0.817383 6.09668L6.14062 1.37598C6.78234 0.807198 7.5817 0.5 8.4043 0.5Z" fill="white" stroke="black"/>
</svg>
