<svg width="126" height="518" viewBox="0 0 126 518" fill="none" xmlns="http://www.w3.org/2000/svg">
<path d="M62.7991 182.392L62.293 182.396L62.341 189.274L62.8471 189.271L62.7991 182.392Z" fill="black"/>
<path d="M110.961 185.119L110.613 184.751C112.26 183.194 114.417 179.37 115.525 176.046L116.005 176.206C114.875 179.598 112.659 183.513 110.961 185.119H110.961Z" fill="black"/>
<path d="M72.083 353.854C71.5491 349.721 67.7142 341.958 67.6758 341.88L68.1293 341.655C68.2887 341.976 72.0405 349.572 72.5851 353.789L72.083 353.854Z" fill="black"/>
<path d="M81.4096 353.918L80.9414 353.725C81.0755 353.399 81.3362 352.716 81.6657 351.852C83.3561 347.419 85.2312 342.606 86.0911 341.602L86.4752 341.932C85.6002 342.953 83.348 348.859 82.1379 352.032C81.8069 352.9 81.5457 353.585 81.4085 353.917L81.4096 353.918Z" fill="black"/>
<path d="M88.2289 210.367L87.7734 210.146C88.3595 208.937 91.3628 203.584 92.4332 202.021L92.8508 202.308C91.7899 203.857 88.8105 209.167 88.2289 210.367Z" fill="black"/>
<path d="M13.977 185.119C12.279 183.513 10.0637 179.598 8.93359 176.206L9.4139 176.046C10.5218 179.37 12.6788 183.194 14.3252 184.751L13.9775 185.119H13.977Z" fill="black"/>
<path d="M53.1036 353.854L52.6016 353.789C53.1466 349.572 56.898 341.976 57.0574 341.655L57.5109 341.88C57.4724 341.958 53.6376 349.722 53.1036 353.854Z" fill="black"/>
<path d="M43.7815 353.918C43.6449 353.585 43.3832 352.9 43.0522 352.032C41.8421 348.86 39.5899 342.953 38.7148 341.932L39.099 341.602C39.9589 342.607 41.8345 347.419 43.5244 351.852C43.8539 352.716 44.1146 353.399 44.2487 353.725L43.7805 353.918L43.7815 353.918Z" fill="black"/>
<path d="M36.9656 210.367C36.3841 209.167 33.4046 203.857 32.3438 202.308L32.7613 202.021C33.8317 203.584 36.835 208.937 37.4211 210.146L36.9656 210.367Z" fill="black"/>
<path d="M125.006 114.771C125.638 110.63 124.536 105.372 123.501 101.69C122.332 97.5319 120.822 93.8367 120.09 92.3615C118.846 89.4358 117.274 87.4705 115.286 86.3527C113.599 85.4044 111.921 85.2672 110.696 85.1675L110.514 85.1523C107.876 84.9326 99.3896 81.3058 95.7654 79.7571L95.7598 79.7546C77.898 72.6442 77.1596 70.364 76.3771 67.9501C76.1458 67.2353 76.0173 62.1504 75.9231 58.4375C75.8847 56.9182 75.8482 55.4835 75.8103 54.474H75.8068C76.6054 53.5496 77.317 52.6135 77.9142 51.6936C78.9011 50.1738 79.8319 47.3798 80.6062 43.6122C80.7135 43.0903 80.8168 42.5541 80.9165 42.0038C81.1144 42.1177 81.3006 42.1577 81.4651 42.1577C81.5855 42.1577 81.6944 42.1365 81.788 42.1061C83.6804 41.4966 85.1385 35.3339 85.8116 30.2414C86.1826 27.4357 85.3354 26.0562 84.4188 25.7003C83.7826 25.4532 83.0836 25.6501 82.5042 26.2146C82.6879 20.1096 82.3705 13.8153 81.0319 10.6082C79.2377 6.30901 75.5011 3.78935 72.682 2.43309C69.5142 0.908232 65.7239 0 62.5329 0C62.5187 0 62.504 0 62.4894 0C58.7188 0.00961893 54.7909 1.02872 51.4287 2.86999C48.2185 4.62823 45.7815 6.96005 44.5659 9.43566C42.3784 13.8923 42.3744 19.9238 42.3703 25.2456C42.3703 25.5636 42.3703 25.879 42.3688 26.1923C41.7934 25.6451 41.105 25.4562 40.477 25.6998C39.5609 26.0557 38.7137 27.4352 39.0846 30.2409C39.7578 35.3334 41.2154 41.4961 43.1082 42.1056C43.2019 42.136 43.3107 42.1572 43.4311 42.1572C43.5865 42.1572 43.7611 42.1213 43.9459 42.0226C44.5011 45.0753 45.3412 48.7578 46.3995 50.587C47.1804 51.9361 48.1967 53.3248 49.3775 54.675C49.341 55.6713 49.3056 57.0428 49.2692 58.4922C49.175 62.1813 49.0465 67.2333 48.8142 67.9496C48.0322 70.3635 47.2938 72.6437 29.432 79.7541L29.426 79.7566C25.8022 81.3053 17.3157 84.9321 14.6778 85.1518L14.4956 85.167C13.2708 85.2667 11.593 85.4039 9.90615 86.3522C7.91713 87.47 6.34564 89.4353 5.10212 92.3604C4.36926 93.8362 2.85952 97.5314 1.6904 101.69C0.654893 105.372 -0.44641 110.63 0.185726 114.77C1.23946 121.678 2.23499 128.203 2.3352 130.267C2.40656 131.74 2.39947 144.551 2.39593 151.433C2.39441 153.964 2.3934 155.793 2.39643 156.242C2.40858 158.114 2.567 168.873 2.71478 171.484C2.77096 172.477 2.8484 173.469 2.9233 174.429C3.04983 176.049 3.16877 177.578 3.19458 179.104C3.21634 180.405 2.43338 186.709 1.99458 188.348C0.232794 194.938 0.560759 201.33 0.878092 207.512C0.919594 208.325 0.962615 209.165 0.999561 209.984C1.14229 213.152 1.58615 218.781 2.05633 224.74C2.5923 231.537 3.14649 238.566 3.20368 241.502C3.2381 243.277 0.511161 263.645 0.315801 264.643C0.110825 265.688 0.84418 276.094 1.34321 277.592C1.42621 277.842 3.39702 283.738 4.79491 285.671C6.04299 287.397 11.4235 293.374 12.8148 294.375L12.9929 294.503L13.1453 294.345C14.0077 293.446 14.3701 292.507 14.3802 291.548C15.1206 290.232 14.9734 288.588 13.953 286.792C13.1174 285.322 11.8835 284.074 11.0601 283.434C10.8242 282.992 10.3905 282.061 9.93197 281.077C9.22796 279.566 8.43083 277.856 8.03049 277.221C7.54918 275.738 7.22122 273.447 6.93476 269.576L6.92413 269.577C6.93324 269.509 6.94235 269.44 6.95197 269.372C7.34674 266.563 8.18233 264.714 9.43648 263.869C10.1471 266.794 10.27 269.819 10.2397 271.007C10.2316 271.314 10.184 271.799 10.1238 272.411C9.86617 275.031 9.43446 279.416 10.9255 281.179C11.3187 281.644 11.8223 281.9 12.4226 281.941C12.4671 281.945 12.5116 281.946 12.5557 281.946C13.0395 281.946 13.4722 281.76 13.8437 281.393C15.6627 279.593 15.6136 273.716 15.4223 270.372C15.4182 270.307 15.4152 270.257 15.4137 270.225C15.3884 269.7 15.5433 268.123 16.4239 263.591C17.2387 259.397 17.0854 255.531 15.9795 252.41C15.2826 250.442 14.4905 246.446 14.4308 245.009V245.004C14.2704 242.537 18.297 220.221 18.8998 217.675C19.0896 216.873 19.3553 215.803 19.6625 214.564C20.9561 209.348 22.9118 201.466 23.1775 197.768C23.512 193.117 21.398 178.647 21.3074 178.034C21.2239 177.464 21.5579 173.611 21.8525 170.212C22.059 167.833 22.2538 165.586 22.312 164.428C22.4264 162.162 22.9128 147.174 23.0828 139.788C23.1755 140.42 23.262 141.016 23.3384 141.558C23.5317 142.932 24.0141 146.697 24.4802 150.338C24.916 153.743 25.328 156.959 25.5213 158.367C25.9201 161.264 27.5189 168.872 28.1673 171.575C28.2816 172.052 28.4132 172.531 28.5529 173.037C29.1557 175.23 29.8394 177.715 29.2761 180.901C28.8039 183.573 27.895 190.165 27.2314 194.978C26.8999 197.38 26.6383 199.277 26.5082 200.133C26.2901 201.57 25.1903 206.669 24.2196 211.169C23.4209 214.873 22.6663 218.372 22.4709 219.504C22.1799 221.191 21.7396 225.44 21.3514 229.188C21.152 231.112 20.9637 232.929 20.8058 234.311C20.4445 237.475 19.2748 248.105 19.3836 252.051C19.4373 253.994 19.6357 259.272 20.32 266.295C21.1884 275.207 22.4993 283.575 24.217 291.168C28.101 308.339 30.2985 316.506 31.2626 319.847C31.5992 321.012 34.5595 331.436 34.9674 338.67C35.3303 345.107 34.8287 358.437 34.4689 363.481C34.4066 364.353 34.3332 365.306 34.2558 366.314C33.9015 370.907 33.4607 376.624 33.6793 380.182C33.9623 384.794 34.9411 393.668 36.7687 403.495C37.463 407.23 38.6575 413.523 39.9223 420.187C42.0985 431.65 44.3482 443.503 44.5547 444.966C44.8316 446.923 45.7648 459.135 44.6473 466.189C44.4403 467.014 44.2141 467.717 43.9955 468.397C43.3249 470.482 42.795 472.128 43.7287 474.971C43.8477 475.333 43.6316 476.411 41.9249 479.492C40.645 481.803 38.8609 484.668 36.9716 487.7C33.531 493.224 29.9731 498.936 28.8723 502.239L28.8647 502.267C28.5225 503.906 28.8966 505.68 29.9771 507.54C30.8851 509.103 32.2708 510.7 34.0959 512.287C37.3689 515.134 41.3399 517.3 43.4139 517.894C43.6614 517.965 43.9256 518 44.206 518C45.3012 518 46.6369 517.462 48.1228 516.416C51.6919 513.902 55.3537 509.005 55.5151 506.53C56.0896 497.717 57.8438 486.133 59.5949 479.584C60.6967 475.466 60.3308 471.558 59.9411 469.898C58.979 465.798 58.5523 459.022 58.5149 447.239C58.4774 435.511 58.8808 424.057 59.0255 420.969C59.0741 419.928 59.3925 414.483 59.7614 408.178C60.2994 398.974 60.9695 387.519 61.0151 386.052C61.09 383.626 60.8086 369.959 60.679 367.374C60.5287 364.38 60.141 355.555 60.2235 353.606C60.2584 352.767 60.5267 350.865 60.8369 348.663C61.2707 345.582 61.7626 342.091 61.8709 339.823C61.9903 337.338 61.3911 329.607 61.0328 324.989C60.93 323.663 60.8491 322.616 60.8065 321.983C60.6218 319.206 59.9659 294.999 60.0089 292.549C60.0302 291.341 60.2918 283.446 60.5444 275.811C60.7575 269.378 60.9599 263.28 61.0014 261.683C61.1755 261.75 61.3496 261.805 61.5232 261.849C61.7226 261.9 62.169 261.96 62.6387 261.96C62.9869 261.96 63.3482 261.927 63.6317 261.832C63.8174 261.782 64.0042 261.718 64.1909 261.643C64.2329 263.252 64.4344 269.35 64.6469 275.781C64.9 283.431 65.1617 291.341 65.1829 292.549C65.2259 294.999 64.5695 319.206 64.3848 321.983C64.3428 322.616 64.2618 323.663 64.159 324.989C63.8007 329.607 63.2015 337.338 63.3204 339.823C63.4292 342.091 63.9212 345.582 64.3549 348.663C64.6652 350.865 64.9329 352.767 64.9683 353.606C65.0508 355.555 64.6631 364.38 64.5128 367.374C64.3827 369.959 64.1013 383.626 64.1768 386.052C64.2223 387.519 64.8919 398.974 65.4304 408.178C65.7994 414.483 66.1177 419.928 66.1663 420.969C66.3105 424.057 66.7144 435.511 66.677 447.239C66.639 459.022 66.2129 465.798 65.2502 469.898C64.8605 471.558 64.4951 475.466 65.5964 479.584C67.3481 486.133 69.1023 497.717 69.6767 506.53C69.8381 509.005 73.4994 513.902 77.069 516.416C78.5549 517.463 79.8901 518 80.9858 518C81.2657 518 81.5304 517.965 81.7774 517.894C83.8519 517.3 87.8229 515.134 91.0959 512.287C92.921 510.7 94.3067 509.103 95.2147 507.54C96.2947 505.68 96.6693 503.906 96.3266 502.267L96.319 502.239C95.2187 498.936 91.6608 493.224 88.2202 487.7C86.3309 484.668 84.5468 481.803 83.2664 479.492C81.5602 476.411 81.3441 475.333 81.4631 474.971C82.3969 472.128 81.867 470.482 81.1964 468.397C80.9777 467.717 80.7515 467.014 80.5445 466.189C79.427 459.135 80.3603 446.923 80.6366 444.966C80.8431 443.503 83.0938 431.648 85.2696 420.184C86.5343 413.522 87.7288 407.229 88.4231 403.495C90.2502 393.668 91.2296 384.794 91.5125 380.182C91.7306 376.624 91.2903 370.908 90.936 366.315C90.8586 365.306 90.7847 364.353 90.7229 363.481C90.3631 358.437 89.8615 345.108 90.2244 338.67C90.6323 331.436 93.5926 321.012 93.9287 319.847C94.8928 316.507 97.0903 308.34 100.975 291.168C102.693 283.575 104.003 275.207 104.871 266.295C105.556 259.271 105.755 253.994 105.808 252.051C105.917 248.105 104.747 237.475 104.386 234.311C104.228 232.929 104.04 231.111 103.84 229.187C103.452 225.439 103.012 221.191 102.721 219.504C102.526 218.372 101.771 214.873 100.972 211.169C100.002 206.67 98.9017 201.57 98.6836 200.133C98.553 199.277 98.2914 197.379 97.9604 194.977C97.2963 190.164 96.3874 183.573 95.9152 180.901C95.3524 177.715 96.0356 175.23 96.6389 173.038C96.7786 172.531 96.9102 172.052 97.0246 171.575C97.6729 168.872 99.2717 161.264 99.67 158.367C99.8639 156.959 100.275 153.743 100.712 150.338C101.178 146.697 101.66 142.932 101.853 141.558C101.93 141.015 102.016 140.409 102.108 139.762C102.278 147.137 102.765 162.159 102.88 164.428C102.938 165.586 103.133 167.833 103.339 170.212C103.634 173.611 103.968 177.464 103.884 178.034C103.794 178.647 101.68 193.117 102.014 197.768C102.28 201.466 104.235 209.348 105.529 214.564C105.837 215.803 106.102 216.873 106.292 217.675C106.894 220.221 110.921 242.537 110.762 245.004V245.009C110.701 246.446 109.909 250.442 109.212 252.41C108.106 255.531 107.953 259.397 108.768 263.591C109.649 268.123 109.803 269.7 109.778 270.225C109.776 270.257 109.774 270.307 109.77 270.372C109.578 273.716 109.529 279.593 111.348 281.393C111.72 281.76 112.152 281.946 112.636 281.946C112.68 281.946 112.724 281.945 112.769 281.941C113.369 281.9 113.873 281.644 114.266 281.179C115.757 279.416 115.326 275.031 115.068 272.411C115.008 271.798 114.96 271.314 114.952 271.007C114.922 269.819 115.045 266.794 115.755 263.869C117.009 264.714 117.845 266.563 118.24 269.372C118.249 269.44 118.259 269.509 118.268 269.577L118.257 269.576C117.971 273.447 117.642 275.738 117.161 277.221C116.76 277.856 115.964 279.566 115.259 281.078C114.801 282.061 114.367 282.992 114.132 283.434C113.308 284.074 112.074 285.322 111.239 286.792C110.218 288.588 110.071 290.232 110.812 291.548C110.822 292.506 111.184 293.446 112.047 294.345L112.198 294.503L112.377 294.375C113.768 293.374 119.148 287.397 120.397 285.671C121.794 283.738 123.766 277.842 123.849 277.592C124.347 276.094 125.081 265.688 124.876 264.643C124.681 263.645 121.954 243.278 121.988 241.502C122.045 238.566 122.6 231.537 123.135 224.74C123.606 218.781 124.05 213.152 124.192 209.984C124.229 209.165 124.272 208.324 124.314 207.512C124.631 201.33 124.959 194.938 123.197 188.348C122.758 186.709 121.975 180.405 121.997 179.104C122.023 177.578 122.142 176.048 122.269 174.429C122.343 173.469 122.421 172.477 122.477 171.484C122.625 168.872 122.783 158.114 122.795 156.242C122.798 155.792 122.797 153.962 122.795 151.428C122.792 144.548 122.785 131.74 122.856 130.267C122.956 128.203 123.952 121.678 125.006 114.77L125.006 114.771ZM82.4804 26.9381L82.5264 26.9705C83.0209 26.2607 83.6758 25.9549 84.2361 26.1721C84.9391 26.4455 85.6426 27.6575 85.3095 30.1751C84.4886 36.3874 82.9419 41.2024 81.6326 41.6241C81.5532 41.6495 81.3295 41.7218 81.0142 41.4561C81.536 38.461 81.9469 35.0964 82.2162 31.5931C82.3311 30.1027 82.4222 28.5313 82.4804 26.9381ZM43.2631 41.6241C41.9538 41.2024 40.4076 36.3874 39.5862 30.1751C39.2537 27.6575 39.9567 26.4455 40.6602 26.1721C41.2189 25.9554 41.8723 26.2597 42.3663 26.9664C42.3668 29.9412 42.8192 34.8868 43.4995 39.3485C43.5956 39.9763 43.7125 40.7028 43.8492 41.4829C43.5511 41.7173 43.34 41.649 43.2631 41.6241ZM46.8373 50.3338C44.5416 46.3673 42.8466 32.3363 42.8729 26.8272C42.8754 26.3073 42.8759 25.7797 42.8764 25.2467C42.8805 19.98 42.8845 14.0102 45.0203 9.65943C46.1733 7.31089 48.5975 4.9983 51.6722 3.31448C54.9609 1.51321 58.8033 0.515879 62.4909 0.506766C62.504 0.506766 62.5167 0.506766 62.5304 0.506766C67.8587 0.506766 77.4309 3.29524 80.5652 10.8041C81.292 12.5456 81.7743 15.5103 81.9601 19.3771C82.1332 22.9781 82.0471 27.1892 81.7116 31.5546C81.0035 40.7625 79.3465 48.5594 77.4901 51.4182C75.7551 54.0893 73.0343 56.9066 70.0244 59.1473C67.0525 61.3596 64.323 62.6258 62.5263 62.6253H62.4924C60.4801 62.6076 57.5295 61.188 54.3966 58.7317C51.2562 56.2687 48.5009 53.2079 46.8373 50.3343V50.3338ZM7.55981 277.409L7.56993 277.44L7.58714 277.467C7.96267 278.05 8.76537 279.772 9.47342 281.291C9.97245 282.363 10.4042 283.289 10.641 283.723L10.6663 283.77L10.7094 283.803C11.4943 284.403 12.6999 285.612 13.5132 287.043C14.0416 287.974 14.5366 289.251 14.2557 290.48C13.7551 288.356 11.8304 286.177 10.0519 284.163L10.0403 284.15C9.60552 282.475 8.47739 280.523 7.65091 279.094C7.21919 278.348 6.84467 277.699 6.74749 277.39C6.74243 277.144 6.73383 276.86 6.72523 276.559C6.69436 275.493 6.65386 274.111 6.69638 272.637C6.9297 274.831 7.20351 276.325 7.55981 277.409ZM111.679 287.043C112.491 285.612 113.697 284.403 114.482 283.803L114.525 283.77L114.551 283.723C114.788 283.289 115.219 282.363 115.718 281.292C116.426 279.773 117.229 278.05 117.604 277.467L117.622 277.44L117.632 277.409C117.988 276.324 118.262 274.829 118.496 272.635C118.538 274.11 118.497 275.492 118.467 276.558C118.457 276.86 118.449 277.144 118.444 277.39C118.347 277.699 117.973 278.348 117.541 279.094C116.714 280.523 115.586 282.475 115.152 284.15L115.139 284.163C113.361 286.177 111.436 288.357 110.936 290.482C110.655 289.251 111.15 287.974 111.679 287.043ZM122.351 130.242C122.279 131.729 122.286 144.061 122.29 151.429C122.291 153.962 122.292 155.791 122.29 156.239C122.278 158.109 122.119 168.852 121.972 171.456C121.916 172.444 121.839 173.433 121.764 174.39C121.637 176.017 121.517 177.554 121.492 179.096C121.469 180.418 122.264 186.817 122.708 188.48C124.45 194.992 124.124 201.344 123.809 207.486C123.767 208.299 123.724 209.141 123.687 209.961C123.544 213.122 123.08 219.008 122.631 224.701C122.095 231.505 121.54 238.541 121.483 241.493C121.446 243.389 124.174 263.688 124.38 264.74C124.464 265.168 124.352 267.818 124.119 270.905C123.867 274.259 123.572 276.822 123.369 277.433C123.287 277.68 121.34 283.504 119.987 285.374C118.855 286.94 113.842 292.533 112.259 293.828C109.779 290.998 112.696 287.695 115.519 284.499L115.613 284.393L115.627 284.334C116.033 282.714 117.158 280.768 117.98 279.347C118.48 278.482 118.842 277.856 118.941 277.497L118.949 277.466V277.434C118.955 277.183 118.964 276.901 118.973 276.573C119.079 272.93 119.298 265.418 115.888 263.353C116.111 262.524 116.383 261.713 116.715 260.965L116.253 260.759C114.648 264.375 114.405 269.392 114.447 271.02C114.455 271.346 114.504 271.838 114.565 272.461C114.798 274.835 115.233 279.253 113.88 280.852C113.574 281.214 113.2 281.405 112.735 281.437C112.344 281.464 112.006 281.332 111.704 281.033C110.479 279.821 109.958 275.946 110.276 270.402C110.279 270.334 110.282 270.283 110.284 270.25C110.323 269.445 109.98 267.173 109.265 263.494C108.467 259.39 108.614 255.616 109.69 252.58C110.412 250.539 111.203 246.536 111.267 245.034C111.426 242.524 107.389 220.113 106.785 217.559C106.594 216.754 106.328 215.683 106.021 214.442C104.731 209.244 102.782 201.387 102.519 197.732C102.189 193.135 104.295 178.719 104.385 178.108C104.471 177.523 104.227 174.585 103.844 170.169C103.638 167.795 103.444 165.552 103.385 164.403C103.251 161.728 102.597 141.312 102.558 136.639V136.638C102.803 134.954 103.057 133.234 103.279 131.778C105.238 128.664 106.562 124.299 107.38 118.345L106.879 118.276C105.832 125.894 103.962 130.855 100.991 133.888C97.9249 137.018 93.539 138.27 87.1872 137.83L87.1523 138.334C87.9864 138.393 88.7876 138.421 89.5574 138.421C94.7966 138.421 98.5819 137.071 101.353 134.242C101.8 133.786 102.222 133.287 102.621 132.746C102.19 135.617 101.683 139.145 101.353 141.488C101.159 142.865 100.676 146.631 100.21 150.274C99.7743 153.678 99.3623 156.893 99.1695 158.298C98.7727 161.182 97.1794 168.763 96.5331 171.457C96.4203 171.926 96.2897 172.401 96.1515 172.904C95.5341 175.148 94.8346 177.691 95.4177 180.989C95.8878 183.652 96.7963 190.238 97.4593 195.047C97.7908 197.451 98.053 199.35 98.1836 200.21C98.4042 201.662 99.4585 206.55 100.478 211.277C101.275 214.975 102.029 218.469 102.222 219.591C102.511 221.261 102.95 225.5 103.337 229.24C103.537 231.166 103.726 232.985 103.883 234.369C104.244 237.524 105.411 248.125 105.303 252.037C105.209 255.405 104.54 273.115 100.482 291.057C96.5999 308.216 94.4054 316.372 93.4433 319.707C93.1052 320.877 90.1303 331.352 89.7193 338.641C89.3554 345.101 89.858 358.463 90.2183 363.517C90.2806 364.391 90.3545 365.345 90.4319 366.354C90.7847 370.932 91.224 376.629 91.0079 380.151C90.7255 384.75 89.7492 393.598 87.9262 403.403C87.2318 407.136 86.0373 413.428 84.7731 420.09C82.5958 431.56 80.3441 443.421 80.136 444.895C79.7539 447.601 78.9791 459.557 80.047 466.28L80.0515 466.302C80.2631 467.147 80.503 467.894 80.715 468.552C81.3826 470.627 81.8649 472.127 80.9828 474.813C80.7545 475.508 81.3224 477.026 82.8245 479.738C84.1106 482.061 85.8981 484.931 87.791 487.969C91.2113 493.46 94.7476 499.137 95.8352 502.385C96.146 503.894 95.7901 505.543 94.7774 507.286C93.8973 508.801 92.5475 510.355 90.7644 511.906C87.5461 514.704 83.6611 516.829 81.6387 517.408C80.5769 517.712 79.0975 517.225 77.361 516.002C73.9554 513.604 70.3326 508.807 70.1823 506.498C69.9075 502.286 69.3523 497.27 68.6189 492.372C67.8628 487.321 66.9634 482.733 66.0858 479.454C65.0103 475.433 65.3646 471.628 65.7437 470.014C66.7149 465.875 67.1456 459.064 67.1836 447.241C67.221 435.503 66.8171 424.037 66.6724 420.946C66.6238 419.903 66.305 414.456 65.936 408.149C65.398 398.948 64.7284 387.497 64.6829 386.036C64.608 383.618 64.8894 369.98 65.0189 367.4C65.1115 365.552 65.5645 355.715 65.4744 353.585C65.438 352.721 65.1687 350.808 64.8565 348.592C64.4455 345.675 63.9343 342.045 63.8265 339.799C63.7091 337.346 64.3068 329.635 64.6641 325.028C64.7669 323.701 64.8484 322.653 64.8904 322.017C65.0756 319.237 65.7325 294.994 65.6895 292.541C65.6683 291.329 65.4066 283.417 65.1536 275.765C64.9288 268.984 64.7173 262.574 64.692 261.411C65.5291 260.972 66.347 260.293 67.0682 259.426C68.0521 258.244 68.7606 256.845 69.0643 255.485C69.2541 254.637 69.4165 253.829 69.574 253.048C70.0133 250.864 70.3928 248.978 71.1576 247.139C73.0591 243.788 82.7415 239.318 86.3896 237.634L86.177 237.174C83.5888 238.369 80.2393 239.958 77.2942 241.647C73.6882 243.717 71.5336 245.436 70.7092 246.903L70.696 246.93C69.9085 248.82 69.5233 250.733 69.0775 252.947C68.9211 253.727 68.7586 254.532 68.5703 255.375C68.2884 256.639 67.5991 257.997 66.6795 259.102C65.7189 260.256 64.5877 261.053 63.4935 261.345L63.4768 261.35C62.9646 261.526 62 261.448 61.6477 261.359C59.4309 260.798 57.1296 258.113 56.5182 255.375C56.3295 254.532 56.1675 253.726 56.0106 252.947C55.5652 250.733 55.1801 248.82 54.3926 246.93L54.3794 246.903C53.5544 245.436 51.4004 243.717 47.7943 241.647C44.8493 239.958 41.4998 238.369 38.911 237.174L38.699 237.634C42.347 239.318 52.0295 243.788 53.931 247.139C54.6957 248.978 55.0753 250.864 55.5146 253.047C55.672 253.829 55.8345 254.637 56.0243 255.485C56.3259 256.837 57.0613 258.282 58.0422 259.452C58.7887 260.343 59.6364 261.033 60.5008 261.464C60.4745 262.642 60.263 269.034 60.0393 275.794C59.7862 283.432 59.5246 291.329 59.5033 292.541C59.4603 294.994 60.1172 319.237 60.3025 322.017C60.3445 322.653 60.4259 323.701 60.5287 325.028C60.886 329.635 61.4837 337.346 61.3663 339.799C61.2585 342.045 60.7468 345.675 60.3364 348.592C60.0241 350.808 59.7543 352.721 59.7179 353.585C59.6283 355.715 60.0813 365.552 60.1739 367.4C60.3035 369.98 60.5844 383.618 60.5095 386.036C60.4644 387.497 59.7948 398.948 59.2563 408.149C58.8874 414.456 58.569 419.903 58.5204 420.946C58.3757 424.037 57.9718 435.503 58.0092 447.241C58.0467 459.064 58.4774 465.875 59.4491 470.014C59.8277 471.628 60.182 475.433 59.1065 479.454C58.2294 482.733 57.33 487.321 56.5734 492.372C55.84 497.27 55.2848 502.286 55.0105 506.498C54.8597 508.807 51.2369 513.604 47.8318 516.002C46.0948 517.226 44.6155 517.712 43.5536 517.408C41.5317 516.829 37.6463 514.704 34.4284 511.906C32.6453 510.355 31.295 508.801 30.4154 507.286C29.4027 505.543 29.0469 503.894 29.3576 502.385C30.4448 499.137 33.9815 493.46 37.4018 487.969C39.2942 484.931 41.0818 482.061 42.3683 479.738C43.8704 477.026 44.4383 475.508 44.2101 474.813C43.3279 472.127 43.8102 470.627 44.4778 468.552C44.6893 467.894 44.9297 467.147 45.1413 466.302L45.1459 466.28C46.2138 459.557 45.4389 447.601 45.0568 444.895C44.8483 443.421 42.5971 431.562 40.4203 420.093C39.1555 413.43 37.9606 407.136 37.2667 403.403C35.4437 393.598 34.4668 384.75 34.1849 380.151C33.9688 376.628 34.4076 370.931 34.7609 366.354C34.8383 365.344 34.9122 364.391 34.9745 363.517C35.3348 358.462 35.8374 345.1 35.473 338.641C35.062 331.352 32.0876 320.877 31.7495 319.707C30.7869 316.372 28.5924 308.215 24.711 291.057C20.6525 273.116 19.9829 255.405 19.8898 252.037C19.782 248.124 20.9491 237.524 21.3094 234.369C21.4673 232.985 21.6556 231.166 21.855 229.241C22.2427 225.501 22.682 221.261 22.97 219.591C23.1638 218.469 23.9174 214.975 24.7151 211.276C25.7344 206.549 26.7886 201.662 27.0093 200.21C27.1398 199.35 27.4015 197.452 27.733 195.048C28.3965 190.239 29.3045 183.652 29.7752 180.989C30.3582 177.691 29.6588 175.148 29.0413 172.904C28.9026 172.401 28.7721 171.926 28.6597 171.457C28.0134 168.763 26.4201 161.182 26.0233 158.298C25.83 156.893 25.4185 153.678 24.9828 150.274C24.5161 146.631 24.0338 142.865 23.84 141.488C23.6507 140.143 23.4007 138.468 23.1395 136.745C23.1334 136.704 23.1274 136.663 23.1213 136.623C22.9588 135.553 22.7928 134.468 22.6349 133.434C22.603 133.228 22.5722 133.023 22.5413 132.822C22.9421 133.334 23.3652 133.808 23.8126 134.246C25.4874 135.887 27.4754 137.013 29.8906 137.686C31.6544 138.178 33.6201 138.422 35.8521 138.422C36.6259 138.422 37.4322 138.393 38.2723 138.334L38.2374 137.83C31.8381 138.274 27.3671 137.02 24.1669 133.884C21.0103 130.791 19.0572 125.832 18.0197 118.276L17.5186 118.345C18.3527 124.421 19.7804 128.854 21.9481 132.013C21.9481 132.013 22.0559 132.996 22.1344 133.511C22.2963 134.57 22.4669 135.684 22.6329 136.779C22.5833 141.708 21.9405 161.754 21.8069 164.403C21.7492 165.552 21.5549 167.795 21.3489 170.169C20.9658 174.585 20.7213 177.523 20.8073 178.108C20.8974 178.719 23.0039 193.135 22.6734 197.732C22.4107 201.387 20.4617 209.244 19.1716 214.443C18.8639 215.683 18.5982 216.754 18.4079 217.559C17.8036 220.113 13.7673 242.524 13.9257 245.034C13.9895 246.536 14.78 250.539 15.5033 252.58C16.5788 255.616 16.7255 259.39 15.9274 263.494C15.2128 267.173 14.8701 269.445 14.9091 270.25C14.9106 270.283 14.9131 270.334 14.9172 270.402C15.2345 275.946 14.7137 279.821 13.4884 281.033C13.1868 281.332 12.8492 281.464 12.4575 281.437C11.9929 281.405 11.6183 281.214 11.3121 280.852C9.9598 279.253 10.3946 274.835 10.6279 272.461C10.6891 271.838 10.7377 271.346 10.7458 271.02C10.7878 269.392 10.5449 264.375 8.93998 260.759L8.4774 260.965C8.80991 261.713 9.0822 262.524 9.30489 263.353C5.89419 265.418 6.11334 272.931 6.21962 276.574C6.22924 276.901 6.23733 277.183 6.24239 277.434V277.466L6.25151 277.497C6.35071 277.856 6.71258 278.482 7.21312 279.347C8.03455 280.768 9.15964 282.714 9.56503 284.334L9.58021 284.393L9.67334 284.499C12.4964 287.695 15.4137 290.998 12.9337 293.828C11.3506 292.533 6.33754 286.94 5.20537 285.374C3.85252 283.503 1.90601 277.68 1.82351 277.433C1.62005 276.822 1.3255 274.259 1.07345 270.905C0.841145 267.818 0.729293 265.168 0.812802 264.74C1.01879 263.688 3.74674 243.388 3.7103 241.493C3.65261 238.541 3.09791 231.505 2.56143 224.701C2.1125 219.008 1.64789 213.121 1.50567 209.961C1.46873 209.141 1.42571 208.3 1.3837 207.487C1.06839 201.344 0.742453 194.992 2.48399 188.48C2.92887 186.817 3.72347 180.417 3.7012 179.096C3.67539 177.554 3.55544 176.017 3.4284 174.39C3.3535 173.433 3.27657 172.444 3.22039 171.456C3.07311 168.852 2.9152 158.109 2.90305 156.239C2.90002 155.792 2.90103 153.964 2.90255 151.434C2.9066 144.064 2.91318 131.729 2.8408 130.242C2.74667 128.298 1.92676 122.824 0.686273 114.694C-0.495503 106.95 4.30701 95.0983 5.55863 92.5797L5.56521 92.566C8.27647 86.1831 12.044 85.8758 14.5371 85.6718L14.7203 85.6571C17.1162 85.4571 23.5981 82.7987 29.6228 80.2239C37.6407 77.0319 42.7094 74.6318 45.5755 72.671C48.2392 70.8485 48.8364 69.5256 49.2965 68.1061C49.5323 67.3781 49.6482 63.5001 49.7758 58.5059C49.8062 57.2989 49.8355 56.1462 49.8654 55.2202C51.1312 56.6049 52.564 57.9363 54.0848 59.1296C57.3037 61.6538 60.3667 63.1123 62.4884 63.1311H62.5253C64.4298 63.1311 67.2696 61.8289 70.3271 59.5528C72.145 58.1996 73.8602 56.6373 75.3234 55.0213C75.3548 55.972 75.3851 57.182 75.4175 58.4502C75.5451 63.4768 75.661 67.3791 75.8963 68.1061C76.3564 69.5256 76.9536 70.8485 79.6173 72.671C82.4829 74.6318 87.5526 77.0319 95.57 80.2239C101.595 82.7987 108.077 85.4571 110.473 85.6571L110.655 85.6718C113.148 85.8758 116.916 86.1831 119.628 92.566L119.634 92.5797C120.886 95.0983 125.688 106.95 124.507 114.694C123.266 122.824 122.446 128.299 122.352 130.242H122.351Z" fill="black"/>
<path d="M58.1489 89.8798C57.622 87.508 56.0566 85.6855 54.851 85.1747C52.8276 84.3171 43.3476 84.4608 35.7301 84.5763C33.3787 84.6117 31.1578 84.6456 29.3945 84.6456V84.1394C31.1538 84.1394 33.3731 84.106 35.7225 84.07C43.3876 83.9536 52.9268 83.8093 55.0484 84.7084C56.4033 85.2825 58.0735 87.2058 58.6429 89.77L58.1489 89.8798Z" fill="black"/>
<path d="M66.9354 89.8796L66.4414 89.7698C67.0113 87.2051 68.681 85.2823 70.0358 84.7082C72.1575 83.8091 81.6972 83.9539 89.3618 84.0698C91.7112 84.1052 93.9305 84.1391 95.6897 84.1391V84.6454C93.9264 84.6454 91.7056 84.612 89.3542 84.576C81.7367 84.4606 72.2567 84.3168 70.2332 85.1744C69.0276 85.6853 67.4622 87.5078 66.9354 89.8796Z" fill="black"/>
</svg>
