<svg width="121" height="509" viewBox="0 0 121 509" fill="none" xmlns="http://www.w3.org/2000/svg">
<path d="M64.2182 88.8479L63.7383 88.5745C63.9574 88.2774 64.1513 87.9914 64.3395 87.715C65.3989 86.1538 66.2357 84.9204 69.6044 84.9204C73.3615 84.9204 81.2011 85.2295 84.1528 85.3461L84.7048 85.3677L84.6791 85.8699L84.1271 85.8483C81.1794 85.7321 73.3489 85.423 69.6044 85.423C66.5601 85.423 65.8719 86.4373 64.8303 87.9723C64.6398 88.2528 64.443 88.5433 64.2182 88.8479Z" fill="black"/>
<path d="M56.2483 88.8479C56.0235 88.5433 55.8261 88.2528 55.6362 87.9723C54.5946 86.4373 53.9064 85.423 50.8621 85.423C47.1182 85.423 39.2877 85.7321 36.3395 85.8483L35.7875 85.8699L35.7617 85.3677L36.3137 85.3461C39.2648 85.2295 47.105 84.9204 50.8621 84.9204C54.2313 84.9204 55.0682 86.1533 56.1276 87.715C56.3152 87.9919 56.5097 88.2779 56.7288 88.5745L56.2489 88.8479H56.2483Z" fill="black"/>
<path d="M78.7926 136.714C75.0715 136.714 71.4672 135.545 68.6437 133.422C65.851 131.322 63.9845 128.421 63.3867 125.252L63.9513 125.17C65.1577 131.568 71.3997 136.212 78.7926 136.212C87.0881 136.212 93.8369 130.282 93.8369 122.993C93.8369 122.374 93.7877 121.752 93.691 121.144L94.2573 121.074C94.358 121.705 94.4089 122.35 94.4089 122.992C94.4089 126.657 92.7844 130.103 89.835 132.695C86.8856 135.286 82.9638 136.714 78.7926 136.714Z" fill="black"/>
<path d="M41.6437 136.714C37.4725 136.714 33.5506 135.286 30.6013 132.695C27.6519 130.103 26.0273 126.657 26.0273 122.992C26.0273 122.35 26.0782 121.705 26.1789 121.074L26.7452 121.144C26.6486 121.752 26.5994 122.374 26.5994 122.993C26.5994 130.282 33.3481 136.212 41.6437 136.212C49.0366 136.212 55.2785 131.568 56.4849 125.17L57.0495 125.252C56.4523 128.421 54.5852 131.322 51.7926 133.422C48.9691 135.545 45.3653 136.714 41.6437 136.714Z" fill="black"/>
<path d="M60.4211 177.844C60.0321 177.717 59.7346 177.363 59.5384 176.79C58.9738 175.144 59.3188 171.787 59.968 171.006L60.4302 171.302C59.9211 171.915 59.5476 175.075 60.0864 176.645C60.2243 177.047 60.4136 177.305 60.6201 177.373L60.4216 177.844L60.4211 177.844Z" fill="black"/>
<path d="M119.325 231.119C119.244 230.284 119.256 229.112 119.269 227.98C119.276 227.299 119.283 226.657 119.268 226.131C119.291 224.315 119.692 204.675 119.761 203.018C119.776 202.683 119.817 201.901 119.875 200.818C120.089 196.765 120.536 188.333 120.534 184.514C120.531 181.263 119.249 176.418 118.857 175.011C118.429 173.477 117.557 154.184 117.464 151.629C117.428 150.624 117.583 145.256 117.763 139.04C117.975 131.714 118.239 122.599 118.273 117.592C118.346 106.847 116.555 96.1828 116.35 95.0021C115.998 92.9665 114.841 90.7127 113.255 88.9736C111.923 87.5135 109.654 85.6955 106.402 85.3241C101.015 84.7094 91.3711 81.3684 87.6403 79.8002C84.0829 78.3044 74.9013 74.1698 73.1028 72.962C72.9455 72.8565 72.6332 72.475 72.3117 71.1068C72.0892 70.1594 71.8901 68.8521 71.7191 67.222C71.4033 64.2023 71.2306 60.5532 71.0921 57.6209C71.0189 56.0718 70.9554 54.7268 70.8839 53.7517C72.8957 51.8558 75.0563 49.6091 77.3278 47.0507C78.4924 45.7383 79.4346 42.5417 80.1359 37.5305C80.2354 37.5546 80.3355 37.5667 80.4356 37.5667C80.6593 37.5667 80.8841 37.5069 81.1026 37.3887C83.2792 36.2091 84.9203 28.8456 84.9232 24.6462C84.9243 22.6146 84.5005 21.5329 83.6281 21.3399C82.8256 21.1625 81.9469 21.8466 81.2691 22.6845C81.2634 21.6184 81.181 19.3435 80.8864 16.843C80.5798 14.2469 79.9586 10.7516 78.7379 8.8462C77.9079 7.55093 76.0001 5.07802 72.5502 3.07053C69.0477 1.03289 64.9091 0 60.2459 0H60.2024C55.8768 0.0060315 51.967 0.94091 48.5823 2.77901C45.9435 4.21149 44.2743 5.82743 43.2481 6.91812C42.3209 7.90427 41.2649 9.16586 40.4778 11.6649C39.6541 14.2786 39.2348 17.8864 39.1999 22.6764C38.5232 21.8426 37.648 21.163 36.8483 21.3399C35.9754 21.5329 35.5521 22.6146 35.5532 24.6462C35.5555 28.8456 37.1972 36.2091 39.3732 37.3887C39.5917 37.5069 39.8171 37.5667 40.0408 37.5667C40.1134 37.5667 40.1866 37.5602 40.2587 37.5476C40.3726 38.2508 40.4875 38.8881 40.5985 39.4591C41.3433 43.2896 42.318 46.1832 43.207 47.1995C44.0129 48.1218 46.6151 50.942 49.6503 53.7346C49.5788 54.7107 49.5147 56.0628 49.4409 57.6209C49.3025 60.5532 49.1297 64.2028 48.814 67.222C48.6435 68.8526 48.4439 70.1594 48.2214 71.1068C47.9005 72.475 47.5881 72.8565 47.4302 72.962C45.6318 74.1698 36.4507 78.3044 32.8927 79.8002C29.1625 81.3684 19.5187 84.7094 14.1308 85.3241C10.8788 85.6955 8.60961 87.5135 7.2785 88.9736C5.69284 90.7127 4.53505 92.9665 4.18268 95.0021C3.97847 96.1828 2.18745 106.847 2.26067 117.592C2.29442 122.599 2.5587 131.715 2.77035 139.04C2.95054 145.256 3.10612 150.624 3.06893 151.629C2.97569 154.183 2.10508 173.476 1.67663 175.011C1.28365 176.418 0.00172975 181.263 1.36673e-05 184.514C-0.00284647 188.333 0.443921 196.766 0.658432 200.818C0.716206 201.901 0.757391 202.683 0.771692 203.018C0.840907 204.676 1.24245 224.315 1.26476 226.131C1.24989 226.657 1.25732 227.299 1.26476 227.98C1.27677 229.112 1.28936 230.284 1.20756 231.119V231.13C1.11431 232.971 0.225408 257.049 0.51657 259.259C0.769406 261.177 2.80352 270.56 3.91955 271.959L4.10261 272.189C8.24294 277.388 13.4295 283.766 14.6245 284.625L14.9368 284.849L15.0747 284.516C15.1833 284.253 15.2777 283.885 15.2142 283.307L15.2171 283.31C15.5449 282.962 16.3125 281.718 15.9395 280.149C15.6095 278.758 13.6046 276.249 12.528 274.901C12.4227 274.769 12.3272 274.65 12.2442 274.545C11.3536 273.42 9.94356 271.192 9.80341 270.752C9.66441 270.316 9.08439 266.836 8.75147 264.442C8.42828 262.12 8.34418 259.707 8.37049 258.931H8.3436C8.46086 258.516 8.61075 258.129 8.8018 257.798C8.98886 258.302 9.16105 258.874 9.31149 259.536C9.8921 262.088 10.2885 265.06 10.4104 266.742C10.4578 267.393 10.6106 269.063 11.0087 270.517C11.4886 272.269 12.155 273.148 13.0457 273.203H13.0588C13.068 273.204 13.0777 273.204 13.0874 273.204C13.3488 273.204 13.5725 273.126 13.7515 272.971C14.1302 272.646 14.2898 272.004 14.2858 270.826C14.2858 270.527 14.2841 270.066 14.2835 269.508C14.2801 267.531 14.2749 264.22 14.2475 262.691C14.2292 261.689 14.2115 258.455 14.1955 255.601C14.1794 252.755 14.1657 250.298 14.1537 249.983C14.128 249.333 13.8007 246.104 12.7734 243.33C12.5011 242.596 12.1842 241.827 11.877 241.083C11.4669 240.089 11.0796 239.15 10.8136 238.337C10.451 237.048 10.3434 235.847 10.2851 235.201C10.2742 235.079 10.2645 234.975 10.2559 234.893C10.0368 232.812 10.2913 229.788 10.4887 228.751L10.4916 228.736C10.6975 227.017 12.5572 216.299 13.2138 213.407C13.4472 212.378 14.1171 209.646 14.8928 206.483C16.3337 200.605 18.127 193.29 18.2711 192.224C18.5017 190.509 18.8323 186.161 18.7888 184.243C18.7431 182.238 18.6218 173.752 18.7511 169.31C18.8323 166.517 19.596 158.452 20.2092 151.972C20.585 148.002 20.8819 144.866 20.9214 144.003C20.9854 142.602 21.4419 132.159 21.8091 123.74C23.6225 129.871 28.67 147.681 30.314 153.49L34.1066 166.887C34.1592 167.074 34.2273 167.281 34.2988 167.501C34.7816 168.975 35.5103 171.203 33.9115 173.686C33.6043 174.164 33.2131 174.766 32.76 175.464C30.3987 179.101 26.4466 185.189 24.266 189.103C19.1767 198.24 17.6104 204.496 16.5745 208.637C16.4161 209.269 16.2668 209.866 16.1238 210.391C15.3029 213.402 14.2303 221.464 14.2435 224.53C14.2509 226.472 14.9316 236.441 18.1155 249.738C21.1564 262.438 25.1521 277.236 25.8991 279.871C26.7738 282.958 31.3563 299.17 32.025 301.72C32.7881 304.63 35.1385 314.103 35.5538 317.251C35.9657 320.372 36.5617 330.182 36.445 334.72C36.3255 339.352 35.893 348.865 35.8089 350.555C35.7054 352.645 35.1471 364.905 35.1099 366.381L35.1082 366.449C35.0676 368.035 34.9451 372.865 35.5401 379.446C35.9016 383.446 36.5314 389.707 37.0376 394.738C36.9707 393.95 37.3671 398.017 37.0376 394.738C37.1417 395.959 38.7898 405.636 39.5854 412.512C40.074 416.734 40.4961 420.38 40.5796 421.181C40.7775 423.072 42.0137 437.64 42.0829 439.49C42.0892 439.656 42.0989 439.887 42.1109 440.167C42.1927 442.114 42.3844 446.651 42.2505 447.778C41.5727 449.46 41.5698 451.274 42.2419 452.65C42.0583 455.501 41.2575 458.792 40.6157 461.059L40.614 461.066C38.522 469.448 36.4473 476.393 34.9326 481.465C33.8972 484.929 33.0798 487.666 32.6794 489.451C31.8614 493.094 36.9839 502.812 40.5356 506.609C41.6179 507.765 42.4856 508.328 43.1892 508.328C44.5758 508.328 46.2799 507.046 47.4651 505.97C51.3229 502.471 55.712 495.797 55.5896 492.439C55.4701 489.169 55.2916 471.294 55.3036 467.18C55.307 465.984 55.2424 464.219 55.1738 462.351C55.0285 458.408 54.83 453.006 55.3334 452.113C56.4248 450.179 55.791 448.531 55.3288 447.329L55.2779 447.197C54.9513 446.342 55.013 441.916 55.0496 439.271C55.0639 438.274 55.076 437.413 55.0679 436.918C55.0371 434.526 55.1526 421.231 55.2293 412.433C55.2447 410.655 55.259 409.031 55.2704 407.67C55.3374 399.681 55.8688 396.901 56.0673 394.37C56.2366 392.214 57.1839 381.777 57.4493 378.994L57.4939 378.528C57.8039 375.279 58.5299 367.669 58.6242 365.419C58.7272 362.977 58.1311 349.552 58.0379 347.611L58.0368 347.592C57.5156 336.768 57.3789 333.265 57.3555 332.233C57.3252 330.875 57.3395 328.857 57.3503 327.235C57.3578 326.162 57.3641 325.234 57.3561 324.761C57.9481 320.88 58.0059 311.318 58.0305 307.231C58.0333 306.752 58.0356 306.361 58.0385 306.081C58.0636 303.528 58.09 285.973 58.0928 283.084C58.0945 280.637 58.1924 276.312 58.2965 271.733C58.4641 264.341 58.654 255.964 58.5253 252.166C58.2702 244.654 57.2176 241.498 55.8007 239.02C56.9574 239.63 58.4606 239.998 60.0383 240.026C60.1075 240.027 60.1761 240.028 60.2448 240.028C61.9592 240.028 63.5414 239.638 64.7867 238.926C63.3423 241.418 62.2663 244.558 62.0084 252.166C61.8791 255.964 62.069 264.341 62.2366 271.733C62.3407 276.312 62.4391 280.637 62.4408 283.084C62.4436 285.973 62.4694 303.528 62.4946 306.081C62.4974 306.361 62.4997 306.752 62.5026 307.231C62.5272 311.318 62.5855 320.88 63.177 324.761C63.169 325.234 63.1753 326.162 63.1827 327.235C63.1942 328.857 63.2079 330.875 63.1776 332.233C63.1547 333.265 63.0174 336.767 62.4963 347.589V347.611C62.4019 349.552 61.8058 362.977 61.9088 365.419C62.0032 367.669 62.7297 375.279 63.0397 378.528L63.0838 378.994C63.3492 381.777 64.2965 392.214 64.4658 394.37C64.6649 396.901 65.1957 399.681 65.2626 407.67C65.274 409.026 65.2884 410.645 65.3038 412.416C65.3805 421.22 65.496 434.524 65.4657 436.917C65.4577 437.413 65.4697 438.274 65.4834 439.271C65.5206 441.916 65.5824 446.342 65.2552 447.197L65.2048 447.329C64.7421 448.531 64.1088 450.179 65.1997 452.113C65.7036 453.006 65.5046 458.408 65.3599 462.351C65.2906 464.219 65.226 465.984 65.2294 467.18C65.242 471.294 65.063 489.169 64.9434 492.439C64.821 495.797 69.2102 502.471 73.0679 505.97C74.2532 507.046 75.9572 508.328 77.3444 508.328C78.0474 508.328 78.9152 507.765 79.9975 506.609C83.5498 502.812 88.6717 493.094 87.8542 489.451C87.4533 487.666 86.6358 484.929 85.6011 481.465C84.0858 476.394 82.011 469.449 79.9197 461.066L79.9174 461.059C79.2756 458.792 78.4747 455.501 78.2911 452.65C78.9632 451.274 78.961 449.46 78.2825 447.778C78.1487 446.651 78.3403 442.114 78.4221 440.167C78.4341 439.887 78.4438 439.656 78.4507 439.49C78.5199 437.639 79.7555 423.071 79.9534 421.181C80.0369 420.38 80.4591 416.734 80.9476 412.512C81.7439 405.636 83.3919 395.958 83.496 394.737C83.1659 398.016 83.5635 393.949 83.496 394.737C84.0016 389.706 84.6314 383.446 84.993 379.446C85.5879 372.865 85.4655 368.036 85.4254 366.449L85.4237 366.381C85.386 364.905 84.8277 352.645 84.7241 350.555C84.64 348.865 84.2076 339.352 84.0886 334.72C83.9713 330.182 84.5674 320.372 84.9792 317.251C85.3951 314.103 87.745 304.63 88.5081 301.72C89.1768 299.17 93.7599 282.958 94.6339 279.871C95.381 277.235 99.3778 262.436 102.418 249.738C105.601 236.441 106.282 226.472 106.29 224.53C106.303 221.464 105.231 213.402 104.409 210.391C104.267 209.866 104.117 209.269 103.959 208.637C102.923 204.496 101.357 198.24 96.2671 189.103C94.0871 185.189 90.1349 179.102 87.7736 175.465C87.3206 174.767 86.9293 174.164 86.6215 173.686C85.0233 171.203 85.7521 168.975 86.2343 167.501C86.3058 167.281 86.3739 167.074 86.4271 166.887L90.219 153.49C91.863 147.681 96.9112 129.871 98.7239 123.74C99.0911 132.159 99.5482 142.605 99.6117 144.003C99.6512 144.866 99.9481 148.001 100.324 151.97C100.937 158.451 101.701 166.517 101.782 169.31C101.92 174.072 101.777 182.829 101.745 184.243C101.701 186.161 102.031 190.509 102.262 192.224C102.406 193.29 104.199 200.603 105.64 206.479C106.415 209.644 107.086 212.378 107.32 213.407C107.976 216.298 109.836 227.017 110.042 228.736L110.044 228.751C110.242 229.788 110.496 232.812 110.278 234.892C110.269 234.975 110.259 235.079 110.248 235.2C110.19 235.846 110.082 237.047 109.72 238.336C109.454 239.15 109.066 240.089 108.656 241.084C108.349 241.827 108.032 242.596 107.76 243.33C106.732 246.105 106.406 249.333 106.38 249.983C106.367 250.298 106.354 252.755 106.338 255.601C106.322 258.455 106.304 261.689 106.286 262.691C106.258 264.22 106.253 267.532 106.25 269.51C106.249 270.067 106.248 270.527 106.247 270.826C106.243 272.004 106.403 272.646 106.782 272.971C106.961 273.126 107.184 273.204 107.446 273.204C107.455 273.204 107.465 273.204 107.475 273.204H107.487C108.379 273.149 109.045 272.27 109.525 270.517C109.923 269.064 110.076 267.393 110.123 266.743C110.245 265.061 110.641 262.088 111.222 259.536C111.372 258.875 111.544 258.302 111.731 257.799C111.922 258.13 112.072 258.516 112.189 258.931H112.163C112.189 259.708 112.105 262.12 111.782 264.443C111.449 266.837 110.869 270.316 110.73 270.752C110.589 271.193 109.179 273.421 108.289 274.546C108.206 274.65 108.11 274.77 108.006 274.901C106.929 276.25 104.924 278.759 104.594 280.15C104.221 281.719 104.989 282.963 105.316 283.31L105.319 283.307C105.256 283.885 105.35 284.253 105.459 284.517L105.596 284.85L105.909 284.625C107.104 283.766 112.29 277.389 116.43 272.19L116.614 271.96C117.73 270.561 119.764 261.178 120.016 259.259C120.308 257.051 119.419 232.972 119.327 231.13L119.325 231.119V231.119ZM81.2473 23.6626C81.9767 22.4915 82.9337 21.7048 83.488 21.8275C83.7483 21.8848 84.3523 22.2748 84.3512 24.6462C84.3483 29.0889 82.5933 35.9899 80.8023 36.9605C80.5929 37.0741 80.4019 37.0937 80.2051 37.0203C80.3086 36.2448 80.4071 35.428 80.4991 34.57C80.8521 31.2934 81.11 27.5313 81.2473 23.6626ZM39.6735 36.9605C37.8825 35.9899 36.1276 29.0889 36.1253 24.6462C36.1236 22.2748 36.7282 21.8848 36.9879 21.8275C37.5347 21.7069 38.4729 22.4693 39.1982 23.6133C39.2136 29.2814 39.677 33.801 40.1792 37.048C40.0139 37.0852 39.8503 37.0565 39.6735 36.9605ZM43.6606 46.8934C43.0165 46.1565 42.0217 43.7942 41.1625 39.3746C40.5344 36.1463 39.7834 30.7747 39.7697 23.5163C39.7491 12.3626 41.6945 9.35887 43.6892 7.23829C47.885 2.778 53.4411 0.512175 60.203 0.502625H60.2453C71.8341 0.502625 76.9468 7.07595 78.2391 9.09248C80.49 12.6058 80.7371 21.9557 80.693 23.163L80.6907 23.2162C80.5575 27.2257 80.2943 31.1351 79.9294 34.5228C79.2258 41.0594 78.1698 45.2845 76.8771 46.7416C74.1061 49.8624 71.3942 52.6213 69.0345 54.7193C65.214 58.117 62.172 59.9129 60.2379 59.9129C55.9226 59.9129 46.0642 49.6437 43.6606 46.8934ZM9.25256 270.888C9.42245 271.421 10.884 273.707 11.7746 274.832C11.8581 274.938 11.9542 275.057 12.0595 275.19C13.0377 276.414 15.0735 278.962 15.3795 280.252C15.6112 281.228 15.3378 282.063 15.0678 282.563C14.9271 282.045 14.6851 281.409 14.2938 280.62C13.1154 278.248 10.4109 274.353 10.106 273.917C10.0225 273.797 9.9144 273.647 9.80056 273.488C9.50711 273.081 9.01687 272.399 8.95738 272.225L8.94423 272.184C8.60101 271.176 8.35961 270.138 8.2269 269.098C8.02841 267.539 7.79104 264.728 7.86254 263.507C7.87284 263.338 7.87911 263.125 7.88712 262.878C7.89513 262.622 7.90371 262.331 7.91916 262.014C7.98036 262.802 8.06617 263.659 8.18344 264.503C8.49634 266.751 9.09296 270.387 9.25256 270.888ZM105.154 280.252C105.46 278.962 107.495 276.414 108.474 275.19C108.579 275.057 108.675 274.937 108.758 274.832C109.649 273.707 111.111 271.421 111.281 270.888C111.441 270.387 112.037 266.751 112.35 264.503C112.467 263.66 112.553 262.803 112.614 262.016C112.629 262.331 112.638 262.623 112.646 262.878C112.654 263.125 112.661 263.338 112.671 263.507C112.742 264.728 112.505 267.539 112.306 269.098C112.173 270.138 111.933 271.176 111.589 272.184L111.576 272.225C111.517 272.399 111.026 273.081 110.732 273.489C110.619 273.647 110.511 273.797 110.427 273.917C110.122 274.353 107.416 278.25 106.24 280.62C105.848 281.409 105.606 282.045 105.466 282.563C105.195 282.065 104.922 281.228 105.154 280.252ZM119.448 259.201C119.162 261.371 117.147 270.415 116.146 271.671L115.962 271.901C109.257 280.319 106.788 283.081 105.886 283.942C105.823 283.461 105.906 282.549 106.764 280.822C107.926 278.482 110.612 274.613 110.914 274.18C110.996 274.062 111.103 273.914 111.216 273.757C111.7 273.085 112.048 272.592 112.124 272.367L112.137 272.328C112.49 271.291 112.739 270.223 112.875 269.154C113.076 267.578 113.315 264.729 113.242 263.481C113.232 263.318 113.225 263.108 113.218 262.864C113.172 261.363 113.086 258.614 111.981 257.183C112.375 256.292 112.816 255.641 113.253 255.07L112.778 254.79C112.288 255.431 111.269 256.764 110.66 259.437C110.075 262.012 109.675 265.012 109.552 266.71C109.34 269.636 108.609 272.619 107.454 272.702C107.341 272.703 107.255 272.675 107.182 272.613C106.814 272.296 106.818 271.191 106.819 270.827C106.82 270.529 106.821 270.068 106.822 269.511C106.825 267.534 106.83 264.225 106.858 262.699C106.876 261.694 106.893 258.598 106.91 255.603C106.925 252.88 106.939 250.308 106.951 250.001C106.973 249.473 107.291 246.218 108.304 243.486C108.573 242.76 108.889 241.995 109.194 241.255C109.608 240.251 110 239.302 110.271 238.471L110.274 238.462C110.648 237.131 110.759 235.901 110.818 235.24C110.829 235.121 110.838 235.02 110.847 234.939C111.07 232.82 110.812 229.742 110.61 228.675C110.398 226.927 108.538 216.204 107.88 213.309C107.646 212.276 106.975 209.54 106.199 206.373C104.761 200.508 102.971 193.207 102.83 192.165C102.601 190.464 102.273 186.152 102.316 184.253C102.349 182.837 102.492 174.068 102.354 169.297C102.272 166.49 101.508 158.416 100.894 151.928C100.533 148.122 100.222 144.835 100.183 143.983C100.078 141.678 98.9058 114.798 98.8263 112.918C98.7926 112.033 98.7903 111.971 98.6747 108.751L98.6444 107.895L98.0724 107.911L98.1033 108.767C98.2183 111.988 98.2205 112.049 98.2543 112.935C98.2823 113.596 98.4453 117.342 98.649 122.023C97.5261 125.622 91.4924 146.91 89.6636 153.368L85.8716 166.765C85.8213 166.944 85.7549 167.147 85.6846 167.362C85.2069 168.822 84.4072 171.267 86.1239 173.933C86.4316 174.412 86.8235 175.015 87.2771 175.714C89.635 179.346 93.5814 185.424 95.7534 189.324C100.813 198.407 102.37 204.628 103.4 208.744C103.559 209.379 103.709 209.979 103.853 210.508C104.667 213.494 105.731 221.488 105.718 224.529C105.71 226.459 105.032 236.379 101.858 249.635C98.8194 262.325 94.8256 277.116 94.0791 279.75C93.2044 282.837 88.6202 299.054 87.9509 301.607C87.1861 304.524 84.8294 314.024 84.4112 317.193C83.9976 320.327 83.3993 330.176 83.5166 334.732C83.6356 339.367 84.0686 348.886 84.1527 350.576C84.2562 352.666 84.8145 364.919 84.8517 366.392L84.8534 366.46C84.8934 368.041 85.0153 372.851 84.4232 379.406C84.0617 383.404 83.4319 389.663 82.9262 394.692C82.5962 397.974 82.9937 393.901 82.9262 394.692C82.8227 395.907 81.1741 405.588 80.3784 412.462C79.8899 416.685 79.4678 420.332 79.3837 421.135C79.1858 423.027 77.9485 437.618 77.8787 439.473C77.8724 439.638 77.8626 439.869 77.8506 440.148C77.7603 442.29 77.5726 446.748 77.7179 447.863L77.7214 447.892L77.7328 447.92C78.4987 449.796 78.2391 451.518 77.7403 452.503L77.7128 452.558L77.7162 452.618C77.8947 455.52 78.7093 458.874 79.3614 461.177C81.4556 469.568 83.5314 476.518 85.0473 481.593C86.0798 485.049 86.8956 487.779 87.2931 489.549C87.6358 491.075 86.82 494.057 85.0559 497.73C83.425 501.127 81.3171 504.407 79.5559 506.29C78.3054 507.625 77.6333 507.825 77.3444 507.825C76.4183 507.825 75.0454 507.042 73.4787 505.621C69.7771 502.262 65.3993 495.64 65.5154 492.455C65.635 489.182 65.814 471.295 65.8014 467.179C65.798 465.992 65.8627 464.231 65.9313 462.367C66.1355 456.822 66.2391 452.824 65.7122 451.89C64.7266 450.142 65.2923 448.672 65.7465 447.49L65.7975 447.357C66.1281 446.493 66.1081 443.036 66.0555 439.265C66.0417 438.272 66.0297 437.414 66.0377 436.923C66.068 434.525 65.9525 421.218 65.8758 412.412C65.8604 410.641 65.8461 409.022 65.8346 407.666C65.7677 399.664 65.2357 396.871 65.0367 394.335C64.8668 392.178 63.9195 381.737 63.6541 378.951L63.6094 378.487C63.3 375.24 62.5747 367.638 62.4803 365.401C62.3785 362.975 62.9734 349.571 63.0672 347.632L63.0683 347.61C63.5894 336.783 63.7262 333.277 63.7496 332.243C63.7799 330.878 63.7662 328.856 63.7547 327.232C63.7473 326.148 63.741 325.211 63.7496 324.75V324.731L63.7467 324.712C63.1575 320.876 63.0975 310.961 63.0746 307.228C63.0717 306.748 63.0695 306.357 63.0666 306.077C63.0414 303.525 63.0157 285.972 63.0128 283.084C63.0111 280.632 62.9127 276.304 62.8086 271.723C62.641 264.337 62.4511 255.966 62.5798 252.181C62.8744 243.505 64.2341 240.736 65.9834 238.043C66.0926 237.939 66.207 237.83 66.326 237.718C69.2245 234.968 75.2554 229.245 86.4654 225.878L86.28 225.403C81.3863 226.873 76.9068 228.957 72.9655 231.597C69.6666 233.808 67.4037 235.955 65.9061 237.376C65.7797 237.496 65.6585 237.611 65.5423 237.721C64.2856 238.907 62.2841 239.564 60.0497 239.524C58.0785 239.488 56.2446 238.897 55.1566 237.963C55.0931 237.908 55.0325 237.853 54.9741 237.796C54.9524 237.775 54.9307 237.753 54.9095 237.731C51.7233 234.28 47.5835 231.271 42.6046 228.789C38.6628 226.823 35.4171 225.799 34.1952 225.414L34.1655 225.404L33.9721 225.877L34.0019 225.887C42.4067 228.538 49.6749 232.858 54.4679 238.051L54.4725 238.056C54.5434 238.128 54.6177 238.199 54.6955 238.268C56.3744 240.895 57.6672 243.746 57.9538 252.181C58.0825 255.966 57.8926 264.337 57.725 271.723C57.6209 276.304 57.5231 280.632 57.5214 283.084C57.5185 285.972 57.4922 303.525 57.467 306.076C57.4642 306.357 57.4619 306.748 57.459 307.228C57.4367 310.961 57.3766 320.876 56.7869 324.712L56.784 324.731V324.75C56.7932 325.211 56.7863 326.148 56.7789 327.232C56.768 328.856 56.7537 330.878 56.7846 332.243C56.8075 333.278 56.9442 336.785 57.4659 347.613L57.467 347.632C57.5603 349.571 58.1552 362.975 58.0534 365.401C57.959 367.638 57.2336 375.24 56.9242 378.487L56.8801 378.951C56.6147 381.737 55.6668 392.178 55.4975 394.335C55.2979 396.871 54.7665 399.664 54.699 407.666C54.6875 409.027 54.6733 410.652 54.6578 412.429C54.5766 421.755 54.4656 434.527 54.4965 436.924C54.5039 437.414 54.4925 438.272 54.4782 439.265C54.4256 443.036 54.4055 446.493 54.7362 447.357L54.7871 447.49C55.2418 448.672 55.807 450.142 54.8214 451.89C54.2946 452.824 54.3981 456.822 54.6023 462.367C54.671 464.231 54.7356 465.992 54.7322 467.179C54.7201 471.295 54.8992 489.182 55.0187 492.455C55.1349 495.64 50.7571 502.262 47.055 505.621C45.4882 507.042 44.1153 507.825 43.1898 507.825C42.9004 507.825 42.2282 507.625 40.9778 506.29C39.2165 504.407 37.1091 501.127 35.4777 497.73C33.7136 494.057 32.8984 491.075 33.2411 489.549C33.6381 487.779 34.4538 485.049 35.4863 481.592C37.0022 476.518 39.0786 469.568 41.1723 461.177C41.8244 458.874 42.6389 455.52 42.8174 452.618L42.8214 452.558L42.7934 452.503C42.2946 451.518 42.0355 449.796 42.8014 447.92L42.8123 447.892L42.8163 447.863C42.9616 446.748 42.7734 442.29 42.683 440.148C42.6715 439.869 42.6618 439.638 42.655 439.473C42.5857 437.618 41.3479 423.028 41.1499 421.135C41.0659 420.332 40.6437 416.685 40.1552 412.462C39.3595 405.588 37.7115 395.909 37.608 394.694C37.541 393.903 37.938 397.974 37.608 394.694C37.1017 389.664 36.4719 383.404 36.111 379.406C35.5183 372.851 35.6402 368.041 35.6802 366.46L35.6819 366.392C35.7197 364.919 36.278 352.666 36.3815 350.576C36.4651 348.886 36.8981 339.367 37.0171 334.732C37.1343 330.175 36.5366 320.326 36.123 317.193C35.7043 314.024 33.3481 304.524 32.5827 301.607C31.9134 299.054 27.3292 282.837 26.4546 279.75C25.7086 277.116 21.7153 262.328 18.6761 249.635C15.502 236.379 14.8235 226.459 14.8161 224.529C14.8035 221.488 15.8663 213.494 16.6809 210.508C16.8245 209.979 16.9749 209.379 17.134 208.745C18.1642 204.628 19.7212 198.407 24.7802 189.324C26.9528 185.424 30.8992 179.345 33.2571 175.713C33.7107 175.014 34.102 174.412 34.4097 173.933C36.127 171.267 35.3273 168.822 34.8496 167.362C34.7793 167.147 34.7124 166.944 34.662 166.765L30.87 153.368C29.0418 146.91 23.0081 125.622 21.8846 122.023C22.0883 117.341 22.2513 113.595 22.2793 112.934C22.3131 112.048 22.4601 107.952 22.4612 107.911L21.8898 107.895C21.8881 107.936 21.7416 112.032 21.7079 112.917C21.6284 114.795 20.4557 141.674 20.3505 143.983C20.3116 144.835 20.0004 148.123 19.64 151.93C19.0256 158.417 18.2614 166.49 18.1796 169.297C18.0412 174.071 18.1853 182.838 18.2174 184.253C18.2609 186.153 17.9325 190.464 17.7037 192.165C17.563 193.208 15.7725 200.51 14.3339 206.377C13.5582 209.542 12.8878 212.276 12.6533 213.309C11.996 216.204 10.1352 226.927 9.92413 228.675C9.7222 229.742 9.46362 232.82 9.68672 234.94C9.69587 235.02 9.70445 235.122 9.71532 235.24C9.77481 235.901 9.88521 237.132 10.2599 238.462L10.2628 238.471C10.5339 239.302 10.9257 240.251 11.3399 241.255C11.6454 241.995 11.9611 242.76 12.2299 243.486C13.2424 246.218 13.5616 249.473 13.5822 250.001C13.5948 250.308 13.6091 252.88 13.624 255.603C13.6406 258.598 13.6577 261.694 13.676 262.699C13.7035 264.224 13.7086 267.533 13.7121 269.509C13.7127 270.067 13.7138 270.528 13.7144 270.827C13.7155 271.191 13.7195 272.296 13.3523 272.613C13.2791 272.675 13.1944 272.704 13.0794 272.702C11.9251 272.619 11.194 269.636 10.9818 266.71C10.8582 265.012 10.459 262.012 9.87321 259.437C9.26515 256.764 8.24579 255.431 7.75556 254.79L7.28079 255.07C7.71725 255.641 8.15885 256.292 8.55241 257.183C7.44782 258.614 7.36201 261.363 7.31568 262.864C7.30824 263.107 7.30137 263.318 7.29222 263.481C7.21843 264.729 7.45811 267.578 7.6589 269.154C7.79561 270.224 8.04386 271.292 8.39681 272.328L8.40996 272.367C8.48547 272.592 8.83384 273.085 9.31777 273.757C9.43046 273.914 9.53743 274.062 9.61923 274.18C9.73993 274.352 12.5875 278.44 13.7699 280.822C14.6273 282.549 14.7114 283.461 14.6479 283.942C13.7458 283.081 11.2764 280.319 4.57165 271.901L4.38862 271.671C3.387 270.415 1.37116 261.371 1.08572 259.201C0.805427 257.073 1.68749 232.99 1.77844 231.157C1.86253 230.298 1.84937 229.117 1.83679 227.975C1.82935 227.297 1.82248 226.657 1.83679 226.139V226.13C1.81505 224.343 1.41292 204.66 1.34313 203C1.32883 202.663 1.28765 201.879 1.22987 200.795C1.01536 196.746 0.569181 188.321 0.572041 184.514C0.573757 181.319 1.84309 176.524 2.23207 175.131C2.70456 173.438 3.57804 153.364 3.64096 151.645C3.67814 150.626 3.52257 145.251 3.34238 139.028C3.13016 131.704 2.86644 122.591 2.83269 117.589C2.76005 106.882 4.54479 96.2547 4.74843 95.078C5.34791 91.6144 8.67823 86.4535 14.2046 85.8227C19.6554 85.2004 29.381 81.8339 33.1398 80.2536C36.7139 78.7508 45.9498 74.589 47.778 73.3616C49.2024 72.4051 49.6325 65.6765 50.0124 57.642C50.0753 56.3191 50.1308 55.145 50.1897 54.2267C50.3018 54.3277 50.4145 54.4287 50.5272 54.5298C54.9055 58.4352 58.1729 60.4155 60.2379 60.4155C62.3029 60.4155 65.4548 58.6181 69.4418 55.0726C69.7393 54.8082 70.0408 54.5353 70.3457 54.2538C70.404 55.1676 70.4583 56.3317 70.5207 57.6415C70.9005 65.6765 71.3307 72.4051 72.7556 73.3616C74.5832 74.589 83.8198 78.7508 87.3932 80.2536C91.152 81.8339 100.878 85.2004 106.329 85.8227C111.855 86.4535 115.185 91.6144 115.785 95.078C115.989 96.2547 117.774 106.882 117.701 117.589C117.667 122.591 117.403 131.704 117.191 139.027C117.01 145.251 116.855 150.626 116.892 151.646C116.955 153.364 117.829 173.439 118.301 175.131C118.69 176.524 119.959 181.319 119.962 184.514C119.964 188.321 119.518 196.746 119.303 200.794C119.245 201.879 119.204 202.663 119.19 203C119.12 204.66 118.718 224.342 118.696 226.13V226.139C118.711 226.657 118.704 227.297 118.697 227.975C118.684 229.117 118.672 230.298 118.755 231.157C118.847 232.99 119.729 257.074 119.448 259.201Z" fill="black"/>
<path d="M80.4712 334.681L76.625 342.326L77.1482 342.529L80.9944 334.885L80.4712 334.681Z" fill="black"/>
<path d="M67.2841 334.615L66.7422 334.776L69.6114 342.241L70.1534 342.081L67.2841 334.615Z" fill="black"/>
<path d="M110.753 177.658L110.344 177.307C111.598 176.176 112.925 173.465 112.925 172.031H113.497C113.497 173.593 112.112 176.433 110.754 177.658H110.753Z" fill="black"/>
<path d="M40.0583 334.671L39.5352 334.874L43.3814 342.518L43.9046 342.315L40.0583 334.671Z" fill="black"/>
<path d="M53.2598 334.64L50.3906 342.105L50.9326 342.266L53.8018 334.801L53.2598 334.64Z" fill="black"/>
<path d="M9.7786 177.658C8.42003 176.433 7.03516 173.593 7.03516 172.031H7.60718C7.60718 173.465 8.93369 176.177 10.1881 177.307L9.7786 177.658Z" fill="black"/>
</svg>
