<svg width="20" height="20" viewBox="0 0 20 20" fill="none" xmlns="http://www.w3.org/2000/svg">
<path d="M5 14.9788C5.10725 16.0691 5.34963 16.803 5.89742 17.3507C6.87997 18.3333 8.46133 18.3333 11.6241 18.3333C14.7868 18.3333 16.3682 18.3333 17.3507 17.3507C18.3333 16.3682 18.3333 14.7868 18.3333 11.6241C18.3333 8.46133 18.3333 6.87997 17.3507 5.89742C16.803 5.34963 16.0691 5.10725 14.9788 5" stroke="#141B34" stroke-width="1.25"/>
<path d="M1.66797 8.33317C1.66797 5.19047 1.66797 3.61913 2.64428 2.64281C3.62059 1.6665 5.19194 1.6665 8.33464 1.6665C11.4773 1.6665 13.0487 1.6665 14.025 2.64281C15.0013 3.61913 15.0013 5.19047 15.0013 8.33317C15.0013 11.4758 15.0013 13.0473 14.025 14.0235C13.0487 14.9998 11.4773 14.9998 8.33464 14.9998C5.19194 14.9998 3.62059 14.9998 2.64428 14.0235C1.66797 13.0473 1.66797 11.4758 1.66797 8.33317Z" stroke="#141B34" stroke-width="1.25"/>
<path d="M1.66797 9.26528C2.18382 9.1997 2.70534 9.16737 3.22773 9.16845C5.43768 9.12762 7.5935 9.73012 9.31055 10.8685C10.903 11.9244 12.0219 13.3774 12.5013 14.9999" stroke="#141B34" stroke-width="1.25" stroke-linejoin="round"/>
<path d="M10.832 5.8335H10.8395" stroke="#141B34" stroke-width="1.66667" stroke-linecap="round" stroke-linejoin="round"/>
</svg>
