<svg width="20" height="20" viewBox="0 0 20 20" fill="none" xmlns="http://www.w3.org/2000/svg">
<path d="M10.5823 2.9165H9.42032C8.82482 2.9165 8.52707 2.9165 8.26004 3.00984C8.09698 3.06683 7.94376 3.14883 7.80588 3.2529C7.5801 3.4233 7.41494 3.67104 7.08464 4.1665C6.91547 4.42027 6.6661 4.79431 6.56671 4.89876C6.32044 5.15756 5.99751 5.33039 5.64556 5.39175C5.50352 5.4165 5.35103 5.4165 5.04604 5.4165C4.22931 5.4165 3.82095 5.4165 3.48704 5.51102C2.65177 5.74747 1.99894 6.4003 1.76249 7.23558C1.66797 7.56948 1.66797 7.97785 1.66797 8.79459V12.0832C1.66797 14.4402 1.66797 15.6187 2.4002 16.3509C3.13244 17.0832 4.31095 17.0832 6.66797 17.0832H13.3347C15.6917 17.0832 16.8702 17.0832 17.6024 16.3509C18.3347 15.6187 18.3347 14.4402 18.3347 12.0832V8.79459C18.3347 7.97785 18.3347 7.56948 18.2402 7.23558C18.0037 6.4003 17.3508 5.74747 16.5156 5.51102C16.1817 5.4165 15.7733 5.4165 14.9566 5.4165C14.6516 5.4165 14.4991 5.4165 14.3571 5.39175C14.0051 5.33039 13.6822 5.15756 13.4359 4.89876C13.3365 4.7943 13.0872 4.42026 12.918 4.1665C12.5877 3.67104 12.4225 3.4233 12.1967 3.2529C12.0588 3.14883 11.9057 3.06683 11.7426 3.00984C11.4756 2.9165 11.1778 2.9165 10.5823 2.9165Z" stroke="#141B34" stroke-width="1.5" stroke-linecap="round" stroke-linejoin="round"/>
<path d="M13.3347 10.8333C13.3347 12.6742 11.8422 14.1667 10.0013 14.1667C8.16035 14.1667 6.66797 12.6742 6.66797 10.8333C6.66797 8.99242 8.16035 7.5 10.0013 7.5C11.8422 7.5 13.3347 8.99242 13.3347 10.8333Z" stroke="#141B34" stroke-width="1.5" stroke-linecap="round" stroke-linejoin="round"/>
<path d="M15.832 7.9165V7.92484" stroke="#141B34" stroke-width="2" stroke-linecap="round" stroke-linejoin="round"/>
</svg>
