<svg width="33" height="24" viewBox="0 0 33 24" fill="none" xmlns="http://www.w3.org/2000/svg">
<path fill-rule="evenodd" clip-rule="evenodd" d="M15.6106 2.24936C14.3569 2.24936 13.5501 3.13711 13.5501 3.98887C13.5501 4.28715 13.4317 4.57322 13.2207 4.78414C13.0098 4.99506 12.7238 5.11355 12.4255 5.11355C12.1272 5.11355 11.8411 4.99506 11.6302 4.78414C11.4193 4.57322 11.3008 4.28715 11.3008 3.98887C11.3008 1.67502 13.3462 0 15.6106 0C17.8749 0 19.9203 1.67502 19.9203 3.98887C19.9203 5.00858 19.5484 5.95931 18.8856 6.67911C18.6757 6.90854 18.4448 7.13648 18.2333 7.34642L18.1224 7.45439C17.8927 7.6774 17.6721 7.90952 17.461 8.15019C17.3489 8.27966 17.2462 8.41697 17.1536 8.56107C18.0195 8.72222 18.8432 9.05905 19.5739 9.55079L30.7203 17.0637C32.1449 18.0234 32.5303 19.6084 32.0354 20.9446C31.548 22.2582 30.2494 23.2434 28.5624 23.2434H3.67695C2.00942 23.2434 0.716788 22.2762 0.21893 20.9791C-0.287927 19.6594 0.068972 18.0834 1.46058 17.1056L12.1001 9.61977C12.8941 9.06347 13.8034 8.69339 14.7603 8.53708C14.9178 7.77679 15.3496 7.16047 15.747 6.6926C16.005 6.38969 16.2869 6.10627 16.5403 5.85584L16.6603 5.73587C16.8747 5.52593 17.0607 5.34149 17.2301 5.15704C17.503 4.86012 17.671 4.45524 17.671 3.98737C17.671 3.13711 16.8642 2.24936 15.6106 2.24936ZM18.3173 11.4148C17.5824 10.9279 16.7169 10.6758 15.8355 10.692C14.9631 10.6972 14.1125 10.9648 13.3942 11.4598L2.75471 18.9441C2.23586 19.3085 2.16838 19.7809 2.31983 20.1723C2.47729 20.5847 2.92416 20.994 3.67695 20.994H28.5624C29.3257 20.994 29.771 20.5787 29.927 20.1618C30.0725 19.7659 29.9975 19.289 29.4621 18.9291L18.3173 11.4148Z" fill="white"/>
</svg>
