<svg width="34" height="31" viewBox="0 0 34 31" fill="none" xmlns="http://www.w3.org/2000/svg">
<path d="M7.71462 0.647837C8.0121 0.244591 8.48806 0 8.99047 0H24.8559C25.3583 0 25.8342 0.237981 26.1317 0.647837L33.5355 10.6959C33.9851 11.3041 33.9388 12.1436 33.4364 12.7055L18.0998 29.6286C17.8024 29.9591 17.3727 30.1508 16.9232 30.1508C16.4736 30.1508 16.0506 29.9591 15.7465 29.6286L0.409937 12.7055C-0.0990776 12.1436 -0.138741 11.3041 0.310778 10.6959L7.71462 0.647837ZM10.2597 3.27885C10.0415 3.44411 9.98205 3.74159 10.1209 3.97296L13.9153 10.2927L4.18458 11.1058C3.91354 11.1256 3.702 11.357 3.702 11.6346C3.702 11.9123 3.91354 12.137 4.18458 12.1635L16.8769 13.2212C16.9033 13.2212 16.9364 13.2212 16.9628 13.2212L29.6551 12.1635C29.9262 12.1436 30.1377 11.9123 30.1377 11.6346C30.1377 11.357 29.9262 11.1322 29.6551 11.1058L19.931 10.2993L23.7254 3.97957C23.8643 3.7482 23.8048 3.44411 23.5866 3.28546C23.3685 3.1268 23.0644 3.15324 22.8793 3.35156L16.9232 9.79688L10.967 3.34495C10.7819 3.14663 10.4778 3.12019 10.2597 3.27885Z" fill="black"/>
</svg>
