<svg width="14" height="12" viewBox="0 0 14 12" fill="none" xmlns="http://www.w3.org/2000/svg">
<path d="M3.98499 0.876645L3.70703 1.71053H1.71053C0.767064 1.71053 0 2.47759 0 3.42105V10.2632C0 11.2066 0.767064 11.9737 1.71053 11.9737H11.9737C12.9171 11.9737 13.6842 11.2066 13.6842 10.2632V3.42105C13.6842 2.47759 12.9171 1.71053 11.9737 1.71053H9.97718L9.69922 0.876645C9.52549 0.352796 9.03639 0 8.48314 0H5.20107C4.64782 0 4.15872 0.352796 3.98499 0.876645ZM6.84211 4.27632C7.52259 4.27632 8.17521 4.54664 8.65639 5.02782C9.13757 5.509 9.4079 6.16162 9.4079 6.84211C9.4079 7.52259 9.13757 8.17521 8.65639 8.65639C8.17521 9.13757 7.52259 9.4079 6.84211 9.4079C6.16162 9.4079 5.509 9.13757 5.02782 8.65639C4.54664 8.17521 4.27632 7.52259 4.27632 6.84211C4.27632 6.16162 4.54664 5.509 5.02782 5.02782C5.509 4.54664 6.16162 4.27632 6.84211 4.27632Z" fill="white"/>
</svg>
