<svg width="21" height="20" viewBox="0 0 21 20" fill="none" xmlns="http://www.w3.org/2000/svg">
<path fill-rule="evenodd" clip-rule="evenodd" d="M11.0272 6.97719C10.9306 7.55695 11.0939 8.14987 11.4737 8.59842C11.8535 9.04697 12.4114 9.30574 12.9991 9.30599L17.1582 9.30777C17.8087 9.30805 18.2857 9.91938 18.1279 10.5504L16.628 16.5486C16.5166 16.9937 16.1167 17.306 15.6578 17.306H6V10.0076L8.90434 6.37712C9.6136 5.49056 10 4.38901 10 3.25365V2.09859C10.9985 2.56616 11.582 3.64876 11.3969 4.75931L11.0272 6.97719ZM4.8 8.30599L7.34261 5.12773C7.76816 4.59579 8 3.93486 8 3.25365V1.79626C8 0.571147 9.20023 -0.293931 10.3625 0.0934834C12.4572 0.791725 13.7326 2.91012 13.3696 5.08811L13 7.30599L17.1591 7.30777C19.1104 7.30861 20.5416 9.1426 20.0682 11.0356L18.5682 17.0338C18.2343 18.3692 17.0344 19.306 15.6578 19.306H3C1.34315 19.306 0 17.9628 0 16.306V11.306C0 9.64914 1.34315 8.30599 3 8.30599H4.8ZM4 10.306H3C2.44772 10.306 2 10.7537 2 11.306V16.306C2 16.8583 2.44772 17.306 3 17.306H4V10.306Z" fill="#333333"/>
</svg>
