<svg width="18" height="20" viewBox="0 0 18 20" fill="none" xmlns="http://www.w3.org/2000/svg">
<path d="M10.1635 5.13566C10.358 5.79375 10.7172 6.38114 11.1934 6.8501L7.83644 8.86429C7.64193 8.20621 7.28271 7.61881 6.80652 7.14986L10.1635 5.13566Z" fill="#333333"/>
<path d="M6.80652 12.8501L10.1635 14.8643C10.358 14.2062 10.7172 13.6188 11.1934 13.1499L7.83644 11.1357C7.64193 11.7938 7.28271 12.3812 6.80652 12.8501Z" fill="#333333"/>
<path fill-rule="evenodd" clip-rule="evenodd" d="M14 6C15.1046 6 16 5.10457 16 4C16 2.89543 15.1046 2 14 2C12.8954 2 12 2.89543 12 4C12 5.10457 12.8954 6 14 6ZM18 4C18 6.20914 16.2091 8 14 8C11.7909 8 10 6.20914 10 4C10 1.79086 11.7909 0 14 0C16.2091 0 18 1.79086 18 4Z" fill="#333333"/>
<path fill-rule="evenodd" clip-rule="evenodd" d="M14 18C15.1046 18 16 17.1046 16 16C16 14.8954 15.1046 14 14 14C12.8954 14 12 14.8954 12 16C12 17.1046 12.8954 18 14 18ZM18 16C18 18.2091 16.2091 20 14 20C11.7909 20 10 18.2091 10 16C10 13.7909 11.7909 12 14 12C16.2091 12 18 13.7909 18 16Z" fill="#333333"/>
<path fill-rule="evenodd" clip-rule="evenodd" d="M4 12C5.10457 12 6 11.1046 6 10C6 8.89543 5.10457 8 4 8C2.89543 8 2 8.89543 2 10C2 11.1046 2.89543 12 4 12ZM8 10C8 12.2091 6.20914 14 4 14C1.79086 14 0 12.2091 0 10C0 7.79086 1.79086 6 4 6C6.20914 6 8 7.79086 8 10Z" fill="#333333"/>
</svg>
