<svg width="20" height="14" viewBox="0 0 20 14" fill="none" xmlns="http://www.w3.org/2000/svg">
<path fill-rule="evenodd" clip-rule="evenodd" d="M9.71491 12C13.827 12 16.3015 8.933 17.3979 7.10473C17.423 7.06296 17.4298 7.02778 17.4298 7C17.4298 6.97222 17.423 6.93704 17.3979 6.89527C16.3015 5.067 13.827 2 9.71491 2C5.60286 2 3.12834 5.067 2.03191 6.89527C2.00686 6.93704 2 6.97222 2 7C2 7.02778 2.00686 7.06296 2.03191 7.10473C3.12833 8.933 5.60286 12 9.71491 12ZM19.1131 8.13336C17.9248 10.1148 14.9299 14 9.71491 14C4.49989 14 1.50498 10.1148 0.316699 8.13336C-0.105567 7.42924 -0.105566 6.57076 0.3167 5.86664C1.50498 3.88521 4.49989 0 9.71491 0C14.9299 0 17.9248 3.88521 19.1131 5.86664C19.5354 6.57076 19.5354 7.42924 19.1131 8.13336Z" fill="#333333"/>
<path fill-rule="evenodd" clip-rule="evenodd" d="M9.71491 8C10.2672 8 10.7149 7.55228 10.7149 7C10.7149 6.44772 10.2672 6 9.71491 6C9.16262 6 8.71491 6.44772 8.71491 7C8.71491 7.55228 9.16262 8 9.71491 8ZM9.71491 10C11.3718 10 12.7149 8.65685 12.7149 7C12.7149 5.34315 11.3718 4 9.71491 4C8.05805 4 6.71491 5.34315 6.71491 7C6.71491 8.65685 8.05805 10 9.71491 10Z" fill="#333333"/>
</svg>
