<svg width="43" height="43" viewBox="0 0 43 43" fill="none" xmlns="http://www.w3.org/2000/svg">
<path d="M22.7498 6.27051H20.2515C18.9712 6.27051 18.331 6.27051 17.7569 6.47117C17.4064 6.59371 17.0769 6.77001 16.7805 6.99375C16.2951 7.36013 15.94 7.89275 15.2298 8.95801C14.8661 9.50361 14.33 10.3078 14.1163 10.5324C13.5868 11.0888 12.8925 11.4604 12.1358 11.5923C11.8304 11.6455 11.5026 11.6455 10.8468 11.6455C9.09087 11.6455 8.2129 11.6455 7.495 11.8487C5.69915 12.3571 4.29556 13.7607 3.7872 15.5565C3.58398 16.2744 3.58398 17.1524 3.58398 18.9084V25.9788C3.58398 31.0464 3.58398 33.5802 5.15829 35.1545C6.73259 36.7288 9.2664 36.7288 14.334 36.7288H28.6674C33.7349 36.7288 36.2687 36.7288 37.843 35.1545C39.4174 33.5802 39.4174 31.0464 39.4174 25.9788V18.9084C39.4174 17.1524 39.4174 16.2744 39.2142 15.5565C38.7057 13.7607 37.3021 12.3571 35.5063 11.8487C34.7884 11.6455 33.9105 11.6455 32.1545 11.6455C31.4987 11.6455 31.1708 11.6455 30.8655 11.5923C30.1087 11.4604 29.4145 11.0888 28.885 10.5324C28.6713 10.3078 28.1352 9.50359 27.7715 8.95801C27.0613 7.89275 26.7062 7.36013 26.2208 6.99375C25.9243 6.77001 25.595 6.59371 25.2444 6.47117C24.6703 6.27051 24.0302 6.27051 22.7498 6.27051Z" stroke="#141B34" stroke-width="1.5" stroke-linecap="round" stroke-linejoin="round"/>
<path d="M28.6674 23.2917C28.6674 27.2496 25.4587 30.4583 21.5007 30.4583C17.5426 30.4583 14.334 27.2496 14.334 23.2917C14.334 19.3337 17.5426 16.125 21.5007 16.125C25.4587 16.125 28.6674 19.3337 28.6674 23.2917Z" stroke="#141B34" stroke-width="1.5" stroke-linecap="round" stroke-linejoin="round"/>
<path d="M34.042 17.021V17.0389" stroke="#141B34" stroke-width="2" stroke-linecap="round" stroke-linejoin="round"/>
</svg>
