<svg width="19" height="19" viewBox="0 0 19 19" fill="none" xmlns="http://www.w3.org/2000/svg">
<path fill-rule="evenodd" clip-rule="evenodd" d="M11.7466 0.87868C12.9182 -0.292893 14.8177 -0.292893 15.9893 0.878679L17.4035 2.29289C18.575 3.46447 18.575 5.36396 17.4035 6.53553L7.01096 16.928C6.87136 17.0676 6.69356 17.1628 6.49997 17.2015L1.19667 18.2622C0.496951 18.4021 -0.119969 17.7852 0.0199752 17.0855L1.08064 11.7822C1.11935 11.5886 1.21451 11.4108 1.35411 11.2712L11.7466 0.87868ZM14.575 2.29289L15.9893 3.70711C16.3798 4.09763 16.3798 4.7308 15.9893 5.12132L14.575 6.53554L11.7466 3.70711L13.1608 2.29289C13.5514 1.90237 14.1845 1.90237 14.575 2.29289ZM10.3324 5.12132L2.98242 12.4713L2.27531 16.0068L5.81084 15.2997L13.1608 7.94975L10.3324 5.12132Z" fill="#111111"/>
</svg>
