<svg width="11" height="16" viewBox="0 0 11 16" fill="none" xmlns="http://www.w3.org/2000/svg">
<path d="M2.25 4.5C2.25 3.25898 3.25898 2.25 4.5 2.25H5.625C6.86602 2.25 7.875 3.25898 7.875 4.5V4.62656C7.875 5.39297 7.48477 6.10664 6.84141 6.51797L5.35781 7.4707C4.47187 8.04023 3.9375 9.02109 3.9375 10.0723V10.125C3.9375 10.7473 4.44023 11.25 5.0625 11.25C5.68477 11.25 6.1875 10.7473 6.1875 10.125V10.0758C6.1875 9.7875 6.33516 9.52031 6.57422 9.36562L8.05781 8.41289C9.34453 7.5832 10.125 6.15938 10.125 4.62656V4.5C10.125 2.01445 8.11055 0 5.625 0H4.5C2.01445 0 0 2.01445 0 4.5C0 5.12227 0.502734 5.625 1.125 5.625C1.74727 5.625 2.25 5.12227 2.25 4.5ZM5.0625 15.75C5.43546 15.75 5.79315 15.6018 6.05687 15.3381C6.32059 15.0744 6.46875 14.7167 6.46875 14.3438C6.46875 13.9708 6.32059 13.6131 6.05687 13.3494C5.79315 13.0857 5.43546 12.9375 5.0625 12.9375C4.68954 12.9375 4.33185 13.0857 4.06813 13.3494C3.80441 13.6131 3.65625 13.9708 3.65625 14.3438C3.65625 14.7167 3.80441 15.0744 4.06813 15.3381C4.33185 15.6018 4.68954 15.75 5.0625 15.75Z" fill="#333333" fill-opacity="0.6"/>
</svg>
